<svg xmlns="http://www.w3.org/2000/svg" xmlns:xlink="http://www.w3.org/1999/xlink" width="500" zoomAndPan="magnify" viewBox="0 0 375 374.999991" height="500" preserveAspectRatio="xMidYMid meet" version="1.0"><defs><g/><clipPath id="fb60500213"><path d="M 0.398438 3 L 9 3 L 9 13 L 0.398438 13 Z M 0.398438 3 " clip-rule="nonzero"/></clipPath><clipPath id="c48757d675"><path d="M 71 6 L 79 6 L 79 16.441406 L 71 16.441406 Z M 71 6 " clip-rule="nonzero"/></clipPath><clipPath id="8366ae3037"><path d="M 221 6 L 229 6 L 229 16.441406 L 221 16.441406 Z M 221 6 " clip-rule="nonzero"/></clipPath><clipPath id="99701a34d2"><rect x="0" width="287" y="0" height="17"/></clipPath><clipPath id="21c7316a95"><rect x="0" width="351" y="0" height="71"/></clipPath></defs><rect x="-37.5" width="450" fill="#ffffff" y="-37.499999" height="449.999989" fill-opacity="1"/><rect x="-37.5" width="450" fill="#000000" y="-37.499999" height="449.999989" fill-opacity="1"/><g transform="matrix(1, 0, 0, 1, 56, 219)"><g clip-path="url(#99701a34d2)"><g clip-path="url(#fb60500213)"><g fill="#ffffff" fill-opacity="1"><g transform="translate(0.426909, 12.492524)"><g><path d="M 0.203125 -9.296875 L 7.84375 -9.296875 L 7.84375 -7.390625 L 7.71875 -7.40625 C 7.71875 -8.488281 6.644531 -9.03125 4.5 -9.03125 L 4.5 -3 C 4.5 -1.6875 4.578125 -0.890625 4.734375 -0.609375 C 4.785156 -0.503906 4.875 -0.410156 5 -0.328125 C 5.132812 -0.253906 5.273438 -0.207031 5.421875 -0.1875 C 5.578125 -0.164062 5.789062 -0.15625 6.0625 -0.15625 L 6.078125 0 L 2 0 L 2.015625 -0.15625 C 2.285156 -0.15625 2.492188 -0.160156 2.640625 -0.171875 C 2.796875 -0.191406 2.9375 -0.242188 3.0625 -0.328125 C 3.195312 -0.421875 3.289062 -0.515625 3.34375 -0.609375 C 3.40625 -0.703125 3.457031 -0.875 3.5 -1.125 C 3.550781 -1.425781 3.578125 -2.050781 3.578125 -3 L 3.578125 -9.03125 C 1.429688 -9.03125 0.359375 -8.488281 0.359375 -7.40625 L 0.203125 -7.390625 Z M 0.203125 -9.296875 "/></g></g></g></g><g fill="#ffffff" fill-opacity="1"><g transform="translate(9.673403, 12.492524)"><g><path d="M 2.609375 -9.78125 L 2.609375 -4.03125 C 2.679688 -4.675781 2.898438 -5.234375 3.265625 -5.703125 C 3.628906 -6.179688 4.113281 -6.421875 4.71875 -6.421875 C 6.070312 -6.421875 6.75 -5.710938 6.75 -4.296875 L 6.75 -2.1875 C 6.75 -1.269531 6.804688 -0.703125 6.921875 -0.484375 C 7.046875 -0.265625 7.363281 -0.15625 7.875 -0.15625 L 7.90625 0 L 4.671875 0 L 4.703125 -0.15625 C 5.234375 -0.15625 5.550781 -0.265625 5.65625 -0.484375 C 5.757812 -0.710938 5.8125 -1.320312 5.8125 -2.3125 L 5.8125 -4.15625 C 5.8125 -4.769531 5.71875 -5.226562 5.53125 -5.53125 C 5.34375 -5.84375 5.039062 -6 4.625 -6 C 4.21875 -6 3.875 -5.859375 3.59375 -5.578125 C 3.320312 -5.304688 3.117188 -4.957031 2.984375 -4.53125 C 2.734375 -3.707031 2.609375 -2.878906 2.609375 -2.046875 C 2.609375 -1.210938 2.660156 -0.6875 2.765625 -0.46875 C 2.878906 -0.257812 3.195312 -0.15625 3.71875 -0.15625 L 3.75 0 L 0.5 0 L 0.53125 -0.15625 C 1.0625 -0.15625 1.382812 -0.265625 1.5 -0.484375 C 1.613281 -0.703125 1.671875 -1.28125 1.671875 -2.21875 L 1.671875 -6.640625 C 1.671875 -7.972656 1.609375 -8.769531 1.484375 -9.03125 C 1.429688 -9.132812 1.347656 -9.226562 1.234375 -9.3125 C 1.128906 -9.394531 1.007812 -9.441406 0.875 -9.453125 C 0.75 -9.472656 0.578125 -9.484375 0.359375 -9.484375 L 0.328125 -9.625 C 1.097656 -9.726562 1.859375 -9.78125 2.609375 -9.78125 Z M 2.609375 -9.78125 "/></g></g></g><g fill="#ffffff" fill-opacity="1"><g transform="translate(19.172306, 12.492524)"><g><path d="M 5.890625 -3.359375 L 1.546875 -3.359375 L 1.546875 -3.140625 C 1.546875 -2.203125 1.742188 -1.484375 2.140625 -0.984375 C 2.535156 -0.492188 3.03125 -0.25 3.625 -0.25 C 4.507812 -0.25 5.144531 -0.601562 5.53125 -1.3125 L 5.734375 -1.203125 C 5.273438 -0.304688 4.503906 0.140625 3.421875 0.140625 C 2.628906 0.140625 1.945312 -0.144531 1.375 -0.71875 C 0.8125 -1.300781 0.53125 -2.082031 0.53125 -3.0625 C 0.53125 -4.039062 0.78125 -4.84375 1.28125 -5.46875 C 1.78125 -6.101562 2.445312 -6.421875 3.28125 -6.421875 C 4.125 -6.421875 4.769531 -6.132812 5.21875 -5.5625 C 5.664062 -4.988281 5.890625 -4.253906 5.890625 -3.359375 Z M 3.328125 -6.15625 C 2.804688 -6.15625 2.394531 -5.929688 2.09375 -5.484375 C 1.800781 -5.046875 1.625 -4.46875 1.5625 -3.75 L 4.875 -3.75 C 4.8125 -5.351562 4.296875 -6.15625 3.328125 -6.15625 Z M 3.328125 -6.15625 "/></g></g></g><g fill="#ffffff" fill-opacity="1"><g transform="translate(26.930903, 12.492524)"><g/></g></g><g fill="#ffffff" fill-opacity="1"><g transform="translate(31.448004, 12.492524)"><g><path d="M 7.578125 -2.609375 C 7.578125 -1.722656 7.238281 -1.066406 6.5625 -0.640625 C 5.882812 -0.210938 4.957031 0 3.78125 0 L 0.671875 0 L 0.6875 -0.15625 C 0.90625 -0.15625 1.078125 -0.164062 1.203125 -0.1875 C 1.328125 -0.207031 1.445312 -0.253906 1.5625 -0.328125 C 1.675781 -0.410156 1.753906 -0.5 1.796875 -0.59375 C 1.847656 -0.695312 1.890625 -0.867188 1.921875 -1.109375 C 1.972656 -1.421875 2 -2.050781 2 -3 L 2 -6.296875 C 2 -7.617188 1.9375 -8.414062 1.8125 -8.6875 C 1.757812 -8.789062 1.675781 -8.878906 1.5625 -8.953125 C 1.445312 -9.035156 1.328125 -9.085938 1.203125 -9.109375 C 1.078125 -9.128906 0.90625 -9.140625 0.6875 -9.140625 L 0.671875 -9.296875 L 3.640625 -9.296875 C 4.296875 -9.296875 4.957031 -9.179688 5.625 -8.953125 C 6.007812 -8.828125 6.320312 -8.609375 6.5625 -8.296875 C 6.800781 -7.992188 6.921875 -7.628906 6.921875 -7.203125 C 6.921875 -6.609375 6.707031 -6.140625 6.28125 -5.796875 C 5.851562 -5.460938 5.34375 -5.226562 4.75 -5.09375 C 5.445312 -5.03125 6.066406 -4.820312 6.609375 -4.46875 C 6.898438 -4.269531 7.132812 -4.007812 7.3125 -3.6875 C 7.488281 -3.375 7.578125 -3.015625 7.578125 -2.609375 Z M 5.765625 -7.203125 C 5.765625 -8.390625 4.816406 -8.984375 2.921875 -8.984375 L 2.921875 -5.1875 L 3.046875 -5.1875 C 4.859375 -5.1875 5.765625 -5.859375 5.765625 -7.203125 Z M 6.421875 -2.609375 C 6.421875 -4.148438 5.320312 -4.921875 3.125 -4.921875 L 2.921875 -4.921875 L 2.921875 -2.796875 C 2.921875 -1.835938 2.945312 -1.207031 3 -0.90625 C 3.0625 -0.613281 3.207031 -0.414062 3.4375 -0.3125 C 3.882812 -0.3125 4.296875 -0.363281 4.671875 -0.46875 C 5.046875 -0.570312 5.34375 -0.695312 5.5625 -0.84375 C 5.789062 -1 5.988281 -1.226562 6.15625 -1.53125 C 6.332031 -1.832031 6.421875 -2.191406 6.421875 -2.609375 Z M 6.421875 -2.609375 "/></g></g></g><g fill="#ffffff" fill-opacity="1"><g transform="translate(40.853916, 12.492524)"><g><path d="M 5.890625 -3.359375 L 1.546875 -3.359375 L 1.546875 -3.140625 C 1.546875 -2.203125 1.742188 -1.484375 2.140625 -0.984375 C 2.535156 -0.492188 3.03125 -0.25 3.625 -0.25 C 4.507812 -0.25 5.144531 -0.601562 5.53125 -1.3125 L 5.734375 -1.203125 C 5.273438 -0.304688 4.503906 0.140625 3.421875 0.140625 C 2.628906 0.140625 1.945312 -0.144531 1.375 -0.71875 C 0.8125 -1.300781 0.53125 -2.082031 0.53125 -3.0625 C 0.53125 -4.039062 0.78125 -4.84375 1.28125 -5.46875 C 1.78125 -6.101562 2.445312 -6.421875 3.28125 -6.421875 C 4.125 -6.421875 4.769531 -6.132812 5.21875 -5.5625 C 5.664062 -4.988281 5.890625 -4.253906 5.890625 -3.359375 Z M 3.328125 -6.15625 C 2.804688 -6.15625 2.394531 -5.929688 2.09375 -5.484375 C 1.800781 -5.046875 1.625 -4.46875 1.5625 -3.75 L 4.875 -3.75 C 4.8125 -5.351562 4.296875 -6.15625 3.328125 -6.15625 Z M 3.328125 -6.15625 "/></g></g></g><g fill="#ffffff" fill-opacity="1"><g transform="translate(48.612509, 12.492524)"><g><path d="M 5.46875 -4.296875 L 5.46875 -2.953125 C 5.46875 -1.960938 5.5 -1.316406 5.5625 -1.015625 C 5.625 -0.710938 5.773438 -0.5625 6.015625 -0.5625 C 6.171875 -0.5625 6.367188 -0.625 6.609375 -0.75 L 6.6875 -0.609375 C 6.613281 -0.554688 6.519531 -0.492188 6.40625 -0.421875 C 6.289062 -0.347656 6.054688 -0.25 5.703125 -0.125 C 5.347656 0 5.003906 0.0625 4.671875 0.0625 C 4.585938 -0.300781 4.546875 -0.894531 4.546875 -1.71875 C 4.347656 -1.164062 4.09375 -0.71875 3.78125 -0.375 C 3.46875 -0.03125 3.03125 0.140625 2.46875 0.140625 C 1.914062 0.140625 1.476562 -0.00390625 1.15625 -0.296875 C 0.832031 -0.597656 0.671875 -1.007812 0.671875 -1.53125 C 0.671875 -2.957031 1.960938 -3.671875 4.546875 -3.671875 L 4.546875 -4.15625 C 4.546875 -4.789062 4.453125 -5.273438 4.265625 -5.609375 C 4.078125 -5.953125 3.734375 -6.125 3.234375 -6.125 C 2.941406 -6.125 2.707031 -6.050781 2.53125 -5.90625 C 2.351562 -5.769531 2.234375 -5.617188 2.171875 -5.453125 C 2.023438 -4.984375 1.800781 -4.75 1.5 -4.75 C 1.207031 -4.75 1.0625 -4.914062 1.0625 -5.25 C 1.0625 -5.582031 1.28125 -5.859375 1.71875 -6.078125 C 2.164062 -6.304688 2.703125 -6.421875 3.328125 -6.421875 C 3.960938 -6.421875 4.476562 -6.238281 4.875 -5.875 C 5.269531 -5.519531 5.46875 -4.992188 5.46875 -4.296875 Z M 1.671875 -1.46875 C 1.671875 -1.125 1.753906 -0.835938 1.921875 -0.609375 C 2.085938 -0.390625 2.351562 -0.28125 2.71875 -0.28125 C 3.09375 -0.28125 3.429688 -0.457031 3.734375 -0.8125 C 4.035156 -1.175781 4.238281 -1.578125 4.34375 -2.015625 C 4.457031 -2.453125 4.523438 -2.90625 4.546875 -3.375 C 3.554688 -3.363281 2.828125 -3.179688 2.359375 -2.828125 C 1.898438 -2.472656 1.671875 -2.019531 1.671875 -1.46875 Z M 1.671875 -1.46875 "/></g></g></g><g fill="#ffffff" fill-opacity="1"><g transform="translate(56.822795, 12.492524)"><g><path d="M 5.328125 -1.453125 C 5.472656 -1.796875 5.578125 -2.144531 5.640625 -2.5 C 5.710938 -2.851562 5.75 -3.234375 5.75 -3.640625 C 5.75 -4.046875 5.738281 -4.382812 5.71875 -4.65625 C 5.707031 -4.9375 5.675781 -5.179688 5.625 -5.390625 C 5.582031 -5.609375 5.507812 -5.769531 5.40625 -5.875 C 5.207031 -6.039062 4.882812 -6.125 4.4375 -6.125 L 4.40625 -6.265625 C 5.175781 -6.367188 5.9375 -6.421875 6.6875 -6.421875 L 6.6875 -2.953125 C 6.6875 -1.960938 6.710938 -1.316406 6.765625 -1.015625 C 6.828125 -0.710938 6.976562 -0.5625 7.21875 -0.5625 C 7.375 -0.5625 7.578125 -0.625 7.828125 -0.75 L 7.890625 -0.609375 C 7.816406 -0.554688 7.722656 -0.492188 7.609375 -0.421875 C 7.492188 -0.347656 7.257812 -0.25 6.90625 -0.125 C 6.550781 0 6.210938 0.0625 5.890625 0.0625 C 5.796875 -0.445312 5.75 -1.039062 5.75 -1.71875 C 5.34375 -0.476562 4.640625 0.140625 3.640625 0.140625 C 2.285156 0.140625 1.609375 -0.570312 1.609375 -2 L 1.609375 -3.28125 C 1.609375 -4.601562 1.539062 -5.40625 1.40625 -5.6875 C 1.363281 -5.78125 1.285156 -5.863281 1.171875 -5.9375 C 1.066406 -6.019531 0.945312 -6.070312 0.8125 -6.09375 C 0.6875 -6.113281 0.515625 -6.125 0.296875 -6.125 L 0.265625 -6.265625 C 1.035156 -6.367188 1.789062 -6.421875 2.53125 -6.421875 L 2.53125 -2.125 C 2.53125 -1.507812 2.625 -1.046875 2.8125 -0.734375 C 3.007812 -0.429688 3.304688 -0.28125 3.703125 -0.28125 C 4.109375 -0.28125 4.445312 -0.390625 4.71875 -0.609375 C 4.988281 -0.828125 5.191406 -1.109375 5.328125 -1.453125 Z M 5.328125 -1.453125 "/></g></g></g><g fill="#ffffff" fill-opacity="1"><g transform="translate(66.241992, 12.492524)"><g><path d="M 2.34375 -6.28125 L 3.96875 -6.28125 L 3.96875 -5.984375 L 2.34375 -5.984375 L 2.34375 -0.9375 C 2.34375 -0.75 2.382812 -0.597656 2.46875 -0.484375 C 2.5625 -0.367188 2.675781 -0.3125 2.8125 -0.3125 C 3.132812 -0.3125 3.507812 -0.40625 3.9375 -0.59375 L 3.96875 -0.453125 C 3.351562 -0.0546875 2.804688 0.140625 2.328125 0.140625 C 2.015625 0.140625 1.78125 0.0664062 1.625 -0.078125 C 1.476562 -0.234375 1.40625 -0.5 1.40625 -0.875 L 1.40625 -5.984375 L 0.609375 -5.984375 L 0.609375 -6.28125 C 1.085938 -6.28125 1.421875 -6.414062 1.609375 -6.6875 C 1.804688 -6.957031 1.953125 -7.359375 2.046875 -7.890625 L 2.34375 -7.921875 Z M 2.34375 -6.28125 "/></g></g></g><g clip-path="url(#c48757d675)"><g fill="#ffffff" fill-opacity="1"><g transform="translate(71.675743, 12.492524)"><g><path d="M 1.28125 2.796875 C 1.726562 2.796875 2.097656 2.625 2.390625 2.28125 C 2.691406 1.9375 3 1.382812 3.3125 0.625 L 1.328125 -4.375 C 1.035156 -5.113281 0.769531 -5.585938 0.53125 -5.796875 C 0.300781 -6.015625 0.0195312 -6.125 -0.3125 -6.125 L -0.328125 -6.28125 L 2.96875 -6.28125 L 2.9375 -6.125 C 2.625 -6.125 2.40625 -6.070312 2.28125 -5.96875 C 2.164062 -5.875 2.109375 -5.726562 2.109375 -5.53125 C 2.109375 -5.125 2.316406 -4.394531 2.734375 -3.34375 L 3.765625 -0.765625 L 4.796875 -3.953125 C 4.992188 -4.597656 5.09375 -5.082031 5.09375 -5.40625 C 5.09375 -5.882812 4.785156 -6.125 4.171875 -6.125 L 4.140625 -6.28125 L 6.640625 -6.28125 L 6.609375 -6.125 C 6.242188 -6.125 5.988281 -6.003906 5.84375 -5.765625 C 5.695312 -5.535156 5.425781 -4.8125 5.03125 -3.59375 L 3.84375 0.046875 C 3.445312 1.234375 2.988281 2.148438 2.46875 2.796875 C 1.945312 3.441406 1.40625 3.765625 0.84375 3.765625 C 0.582031 3.765625 0.367188 3.710938 0.203125 3.609375 C 0.0351562 3.515625 -0.046875 3.375 -0.046875 3.1875 C -0.046875 3.007812 0.00390625 2.867188 0.109375 2.765625 C 0.222656 2.660156 0.34375 2.609375 0.46875 2.609375 C 0.601562 2.609375 0.75 2.640625 0.90625 2.703125 C 1.0625 2.765625 1.1875 2.796875 1.28125 2.796875 Z M 1.28125 2.796875 "/></g></g></g></g><g fill="#ffffff" fill-opacity="1"><g transform="translate(79.514046, 12.492524)"><g/></g></g><g fill="#ffffff" fill-opacity="1"><g transform="translate(84.031147, 12.492524)"><g><path d="M 3.34375 -9.296875 C 4.863281 -9.296875 6.007812 -9.164062 6.78125 -8.90625 C 7.125 -8.78125 7.488281 -8.597656 7.875 -8.359375 C 8.257812 -8.128906 8.570312 -7.851562 8.8125 -7.53125 C 9.0625 -7.21875 9.269531 -6.8125 9.4375 -6.3125 C 9.601562 -5.820312 9.6875 -5.269531 9.6875 -4.65625 C 9.6875 -4.039062 9.601562 -3.488281 9.4375 -3 C 9.269531 -2.507812 9.0625 -2.101562 8.8125 -1.78125 C 8.570312 -1.457031 8.273438 -1.175781 7.921875 -0.9375 C 7.566406 -0.707031 7.226562 -0.535156 6.90625 -0.421875 C 6.582031 -0.304688 6.226562 -0.210938 5.84375 -0.140625 C 5.320312 -0.046875 4.785156 0 4.234375 0 L 0.671875 0 L 0.6875 -0.15625 C 1.132812 -0.15625 1.457031 -0.238281 1.65625 -0.40625 C 1.882812 -0.59375 2 -1.457031 2 -3 L 2 -6.296875 C 2 -7.242188 1.96875 -7.890625 1.90625 -8.234375 C 1.84375 -8.585938 1.757812 -8.8125 1.65625 -8.90625 C 1.457031 -9.070312 1.132812 -9.15625 0.6875 -9.15625 L 0.671875 -9.296875 Z M 3.40625 -0.3125 C 3.519531 -0.3125 3.738281 -0.3125 4.0625 -0.3125 C 4.394531 -0.3125 4.757812 -0.34375 5.15625 -0.40625 C 5.550781 -0.476562 5.957031 -0.613281 6.375 -0.8125 C 6.800781 -1.007812 7.164062 -1.265625 7.46875 -1.578125 C 7.769531 -1.890625 8.019531 -2.304688 8.21875 -2.828125 C 8.425781 -3.359375 8.53125 -3.960938 8.53125 -4.640625 C 8.53125 -5.316406 8.429688 -5.914062 8.234375 -6.4375 C 8.035156 -6.957031 7.78125 -7.375 7.46875 -7.6875 C 7.164062 -8.007812 6.804688 -8.269531 6.390625 -8.46875 C 5.648438 -8.8125 4.835938 -8.984375 3.953125 -8.984375 C 3.554688 -8.984375 3.210938 -8.957031 2.921875 -8.90625 L 2.921875 -2.84375 C 2.921875 -1.882812 2.945312 -1.25 3 -0.9375 C 3.050781 -0.632812 3.1875 -0.425781 3.40625 -0.3125 Z M 3.40625 -0.3125 "/></g></g></g><g fill="#ffffff" fill-opacity="1"><g transform="translate(95.37664, 12.492524)"><g><path d="M 5.890625 -3.359375 L 1.546875 -3.359375 L 1.546875 -3.140625 C 1.546875 -2.203125 1.742188 -1.484375 2.140625 -0.984375 C 2.535156 -0.492188 3.03125 -0.25 3.625 -0.25 C 4.507812 -0.25 5.144531 -0.601562 5.53125 -1.3125 L 5.734375 -1.203125 C 5.273438 -0.304688 4.503906 0.140625 3.421875 0.140625 C 2.628906 0.140625 1.945312 -0.144531 1.375 -0.71875 C 0.8125 -1.300781 0.53125 -2.082031 0.53125 -3.0625 C 0.53125 -4.039062 0.78125 -4.84375 1.28125 -5.46875 C 1.78125 -6.101562 2.445312 -6.421875 3.28125 -6.421875 C 4.125 -6.421875 4.769531 -6.132812 5.21875 -5.5625 C 5.664062 -4.988281 5.890625 -4.253906 5.890625 -3.359375 Z M 3.328125 -6.15625 C 2.804688 -6.15625 2.394531 -5.929688 2.09375 -5.484375 C 1.800781 -5.046875 1.625 -4.46875 1.5625 -3.75 L 4.875 -3.75 C 4.8125 -5.351562 4.296875 -6.15625 3.328125 -6.15625 Z M 3.328125 -6.15625 "/></g></g></g><g fill="#ffffff" fill-opacity="1"><g transform="translate(103.135233, 12.492524)"><g><path d="M 0.953125 -1.984375 C 0.953125 -1.398438 1.109375 -0.960938 1.421875 -0.671875 C 1.734375 -0.390625 2.101562 -0.25 2.53125 -0.25 C 2.957031 -0.25 3.300781 -0.347656 3.5625 -0.546875 C 3.832031 -0.742188 3.96875 -1.003906 3.96875 -1.328125 C 3.96875 -1.660156 3.851562 -1.929688 3.625 -2.140625 C 3.40625 -2.359375 3.132812 -2.535156 2.8125 -2.671875 C 2.5 -2.804688 2.179688 -2.941406 1.859375 -3.078125 C 1.535156 -3.222656 1.257812 -3.429688 1.03125 -3.703125 C 0.800781 -3.984375 0.6875 -4.351562 0.6875 -4.8125 C 0.6875 -5.269531 0.890625 -5.648438 1.296875 -5.953125 C 1.710938 -6.265625 2.191406 -6.421875 2.734375 -6.421875 C 3.503906 -6.421875 4.109375 -6.296875 4.546875 -6.046875 C 4.546875 -5.640625 4.492188 -5.070312 4.390625 -4.34375 L 4.21875 -4.390625 C 4.21875 -4.972656 4.082031 -5.394531 3.8125 -5.65625 C 3.550781 -5.925781 3.234375 -6.0625 2.859375 -6.0625 C 2.484375 -6.0625 2.179688 -5.960938 1.953125 -5.765625 C 1.734375 -5.566406 1.625 -5.300781 1.625 -4.96875 C 1.625 -4.632812 1.734375 -4.367188 1.953125 -4.171875 C 2.179688 -3.972656 2.453125 -3.804688 2.765625 -3.671875 C 3.085938 -3.546875 3.410156 -3.410156 3.734375 -3.265625 C 4.054688 -3.117188 4.332031 -2.910156 4.5625 -2.640625 C 4.789062 -2.367188 4.90625 -2.035156 4.90625 -1.640625 C 4.90625 -1.078125 4.679688 -0.640625 4.234375 -0.328125 C 3.796875 -0.015625 3.210938 0.140625 2.484375 0.140625 C 1.765625 0.140625 1.160156 -0.0507812 0.671875 -0.4375 C 0.671875 -0.882812 0.710938 -1.40625 0.796875 -2 Z M 0.953125 -1.984375 "/></g></g></g><g fill="#ffffff" fill-opacity="1"><g transform="translate(109.791194, 12.492524)"><g><path d="M 2.34375 -6.28125 L 3.96875 -6.28125 L 3.96875 -5.984375 L 2.34375 -5.984375 L 2.34375 -0.9375 C 2.34375 -0.75 2.382812 -0.597656 2.46875 -0.484375 C 2.5625 -0.367188 2.675781 -0.3125 2.8125 -0.3125 C 3.132812 -0.3125 3.507812 -0.40625 3.9375 -0.59375 L 3.96875 -0.453125 C 3.351562 -0.0546875 2.804688 0.140625 2.328125 0.140625 C 2.015625 0.140625 1.78125 0.0664062 1.625 -0.078125 C 1.476562 -0.234375 1.40625 -0.5 1.40625 -0.875 L 1.40625 -5.984375 L 0.609375 -5.984375 L 0.609375 -6.28125 C 1.085938 -6.28125 1.421875 -6.414062 1.609375 -6.6875 C 1.804688 -6.957031 1.953125 -7.359375 2.046875 -7.890625 L 2.34375 -7.921875 Z M 2.34375 -6.28125 "/></g></g></g><g fill="#ffffff" fill-opacity="1"><g transform="translate(115.224945, 12.492524)"><g><path d="M 1.625 -8 C 1.476562 -8.15625 1.40625 -8.332031 1.40625 -8.53125 C 1.40625 -8.738281 1.476562 -8.914062 1.625 -9.0625 C 1.78125 -9.21875 1.957031 -9.296875 2.15625 -9.296875 C 2.363281 -9.296875 2.539062 -9.21875 2.6875 -9.0625 C 2.84375 -8.914062 2.921875 -8.738281 2.921875 -8.53125 C 2.921875 -8.332031 2.84375 -8.15625 2.6875 -8 C 2.539062 -7.851562 2.363281 -7.78125 2.15625 -7.78125 C 1.957031 -7.78125 1.78125 -7.851562 1.625 -8 Z M 2.671875 -6.421875 L 2.671875 -2.1875 C 2.671875 -1.257812 2.722656 -0.6875 2.828125 -0.46875 C 2.941406 -0.257812 3.257812 -0.15625 3.78125 -0.15625 L 3.8125 0 L 0.578125 0 L 0.59375 -0.15625 C 1.125 -0.15625 1.445312 -0.265625 1.5625 -0.484375 C 1.675781 -0.703125 1.734375 -1.28125 1.734375 -2.21875 L 1.734375 -3.140625 C 1.734375 -4.171875 1.703125 -4.851562 1.640625 -5.1875 C 1.585938 -5.519531 1.507812 -5.734375 1.40625 -5.828125 C 1.195312 -6.023438 0.867188 -6.125 0.421875 -6.125 L 0.40625 -6.265625 C 1.164062 -6.367188 1.921875 -6.421875 2.671875 -6.421875 Z M 2.671875 -6.421875 "/></g></g></g><g fill="#ffffff" fill-opacity="1"><g transform="translate(120.632131, 12.492524)"><g><path d="M 2.671875 -6.421875 L 2.671875 -4.03125 C 2.753906 -4.675781 2.972656 -5.234375 3.328125 -5.703125 C 3.691406 -6.179688 4.175781 -6.421875 4.78125 -6.421875 C 6.132812 -6.421875 6.8125 -5.710938 6.8125 -4.296875 L 6.8125 -2.1875 C 6.8125 -1.269531 6.867188 -0.703125 6.984375 -0.484375 C 7.109375 -0.265625 7.425781 -0.15625 7.9375 -0.15625 L 7.96875 0 L 4.734375 0 L 4.765625 -0.15625 C 5.296875 -0.15625 5.613281 -0.265625 5.71875 -0.484375 C 5.832031 -0.710938 5.890625 -1.320312 5.890625 -2.3125 L 5.890625 -4.15625 C 5.890625 -4.769531 5.789062 -5.226562 5.59375 -5.53125 C 5.40625 -5.84375 5.101562 -6 4.6875 -6 C 4.28125 -6 3.9375 -5.859375 3.65625 -5.578125 C 3.382812 -5.304688 3.1875 -4.957031 3.0625 -4.53125 C 2.800781 -3.707031 2.671875 -2.878906 2.671875 -2.046875 C 2.671875 -1.210938 2.722656 -0.6875 2.828125 -0.46875 C 2.941406 -0.257812 3.257812 -0.15625 3.78125 -0.15625 L 3.8125 0 L 0.578125 0 L 0.59375 -0.15625 C 1.125 -0.15625 1.445312 -0.265625 1.5625 -0.484375 C 1.675781 -0.703125 1.734375 -1.28125 1.734375 -2.21875 L 1.734375 -3.28125 C 1.734375 -4.601562 1.671875 -5.40625 1.546875 -5.6875 C 1.492188 -5.78125 1.410156 -5.863281 1.296875 -5.9375 C 1.191406 -6.019531 1.070312 -6.070312 0.9375 -6.09375 C 0.8125 -6.113281 0.640625 -6.125 0.421875 -6.125 L 0.40625 -6.265625 C 1.164062 -6.367188 1.921875 -6.421875 2.671875 -6.421875 Z M 2.671875 -6.421875 "/></g></g></g><g fill="#ffffff" fill-opacity="1"><g transform="translate(130.197459, 12.492524)"><g><path d="M 5.46875 -4.296875 L 5.46875 -2.953125 C 5.46875 -1.960938 5.5 -1.316406 5.5625 -1.015625 C 5.625 -0.710938 5.773438 -0.5625 6.015625 -0.5625 C 6.171875 -0.5625 6.367188 -0.625 6.609375 -0.75 L 6.6875 -0.609375 C 6.613281 -0.554688 6.519531 -0.492188 6.40625 -0.421875 C 6.289062 -0.347656 6.054688 -0.25 5.703125 -0.125 C 5.347656 0 5.003906 0.0625 4.671875 0.0625 C 4.585938 -0.300781 4.546875 -0.894531 4.546875 -1.71875 C 4.347656 -1.164062 4.09375 -0.71875 3.78125 -0.375 C 3.46875 -0.03125 3.03125 0.140625 2.46875 0.140625 C 1.914062 0.140625 1.476562 -0.00390625 1.15625 -0.296875 C 0.832031 -0.597656 0.671875 -1.007812 0.671875 -1.53125 C 0.671875 -2.957031 1.960938 -3.671875 4.546875 -3.671875 L 4.546875 -4.15625 C 4.546875 -4.789062 4.453125 -5.273438 4.265625 -5.609375 C 4.078125 -5.953125 3.734375 -6.125 3.234375 -6.125 C 2.941406 -6.125 2.707031 -6.050781 2.53125 -5.90625 C 2.351562 -5.769531 2.234375 -5.617188 2.171875 -5.453125 C 2.023438 -4.984375 1.800781 -4.75 1.5 -4.75 C 1.207031 -4.75 1.0625 -4.914062 1.0625 -5.25 C 1.0625 -5.582031 1.28125 -5.859375 1.71875 -6.078125 C 2.164062 -6.304688 2.703125 -6.421875 3.328125 -6.421875 C 3.960938 -6.421875 4.476562 -6.238281 4.875 -5.875 C 5.269531 -5.519531 5.46875 -4.992188 5.46875 -4.296875 Z M 1.671875 -1.46875 C 1.671875 -1.125 1.753906 -0.835938 1.921875 -0.609375 C 2.085938 -0.390625 2.351562 -0.28125 2.71875 -0.28125 C 3.09375 -0.28125 3.429688 -0.457031 3.734375 -0.8125 C 4.035156 -1.175781 4.238281 -1.578125 4.34375 -2.015625 C 4.457031 -2.453125 4.523438 -2.90625 4.546875 -3.375 C 3.554688 -3.363281 2.828125 -3.179688 2.359375 -2.828125 C 1.898438 -2.472656 1.671875 -2.019531 1.671875 -1.46875 Z M 1.671875 -1.46875 "/></g></g></g><g fill="#ffffff" fill-opacity="1"><g transform="translate(138.407734, 12.492524)"><g><path d="M 2.34375 -6.28125 L 3.96875 -6.28125 L 3.96875 -5.984375 L 2.34375 -5.984375 L 2.34375 -0.9375 C 2.34375 -0.75 2.382812 -0.597656 2.46875 -0.484375 C 2.5625 -0.367188 2.675781 -0.3125 2.8125 -0.3125 C 3.132812 -0.3125 3.507812 -0.40625 3.9375 -0.59375 L 3.96875 -0.453125 C 3.351562 -0.0546875 2.804688 0.140625 2.328125 0.140625 C 2.015625 0.140625 1.78125 0.0664062 1.625 -0.078125 C 1.476562 -0.234375 1.40625 -0.5 1.40625 -0.875 L 1.40625 -5.984375 L 0.609375 -5.984375 L 0.609375 -6.28125 C 1.085938 -6.28125 1.421875 -6.414062 1.609375 -6.6875 C 1.804688 -6.957031 1.953125 -7.359375 2.046875 -7.890625 L 2.34375 -7.921875 Z M 2.34375 -6.28125 "/></g></g></g><g fill="#ffffff" fill-opacity="1"><g transform="translate(143.841495, 12.492524)"><g><path d="M 1.625 -8 C 1.476562 -8.15625 1.40625 -8.332031 1.40625 -8.53125 C 1.40625 -8.738281 1.476562 -8.914062 1.625 -9.0625 C 1.78125 -9.21875 1.957031 -9.296875 2.15625 -9.296875 C 2.363281 -9.296875 2.539062 -9.21875 2.6875 -9.0625 C 2.84375 -8.914062 2.921875 -8.738281 2.921875 -8.53125 C 2.921875 -8.332031 2.84375 -8.15625 2.6875 -8 C 2.539062 -7.851562 2.363281 -7.78125 2.15625 -7.78125 C 1.957031 -7.78125 1.78125 -7.851562 1.625 -8 Z M 2.671875 -6.421875 L 2.671875 -2.1875 C 2.671875 -1.257812 2.722656 -0.6875 2.828125 -0.46875 C 2.941406 -0.257812 3.257812 -0.15625 3.78125 -0.15625 L 3.8125 0 L 0.578125 0 L 0.59375 -0.15625 C 1.125 -0.15625 1.445312 -0.265625 1.5625 -0.484375 C 1.675781 -0.703125 1.734375 -1.28125 1.734375 -2.21875 L 1.734375 -3.140625 C 1.734375 -4.171875 1.703125 -4.851562 1.640625 -5.1875 C 1.585938 -5.519531 1.507812 -5.734375 1.40625 -5.828125 C 1.195312 -6.023438 0.867188 -6.125 0.421875 -6.125 L 0.40625 -6.265625 C 1.164062 -6.367188 1.921875 -6.421875 2.671875 -6.421875 Z M 2.671875 -6.421875 "/></g></g></g><g fill="#ffffff" fill-opacity="1"><g transform="translate(149.24867, 12.492524)"><g><path d="M 0.53125 -3.140625 C 0.53125 -4.066406 0.796875 -4.84375 1.328125 -5.46875 C 1.859375 -6.101562 2.578125 -6.421875 3.484375 -6.421875 C 4.398438 -6.421875 5.132812 -6.101562 5.6875 -5.46875 C 6.25 -4.84375 6.53125 -4.0625 6.53125 -3.125 C 6.53125 -2.195312 6.257812 -1.421875 5.71875 -0.796875 C 5.1875 -0.171875 4.460938 0.140625 3.546875 0.140625 C 2.640625 0.140625 1.910156 -0.171875 1.359375 -0.796875 C 0.804688 -1.429688 0.53125 -2.210938 0.53125 -3.140625 Z M 2.0625 -0.984375 C 2.414062 -0.421875 2.914062 -0.140625 3.5625 -0.140625 C 4.207031 -0.140625 4.695312 -0.414062 5.03125 -0.96875 C 5.363281 -1.53125 5.53125 -2.25 5.53125 -3.125 C 5.53125 -4.007812 5.351562 -4.734375 5 -5.296875 C 4.644531 -5.867188 4.144531 -6.15625 3.5 -6.15625 C 2.851562 -6.15625 2.363281 -5.875 2.03125 -5.3125 C 1.707031 -4.75 1.546875 -4.023438 1.546875 -3.140625 C 1.546875 -2.265625 1.71875 -1.546875 2.0625 -0.984375 Z M 2.0625 -0.984375 "/></g></g></g><g fill="#ffffff" fill-opacity="1"><g transform="translate(157.512095, 12.492524)"><g><path d="M 2.671875 -6.421875 L 2.671875 -4.03125 C 2.753906 -4.675781 2.972656 -5.234375 3.328125 -5.703125 C 3.691406 -6.179688 4.175781 -6.421875 4.78125 -6.421875 C 6.132812 -6.421875 6.8125 -5.710938 6.8125 -4.296875 L 6.8125 -2.1875 C 6.8125 -1.269531 6.867188 -0.703125 6.984375 -0.484375 C 7.109375 -0.265625 7.425781 -0.15625 7.9375 -0.15625 L 7.96875 0 L 4.734375 0 L 4.765625 -0.15625 C 5.296875 -0.15625 5.613281 -0.265625 5.71875 -0.484375 C 5.832031 -0.710938 5.890625 -1.320312 5.890625 -2.3125 L 5.890625 -4.15625 C 5.890625 -4.769531 5.789062 -5.226562 5.59375 -5.53125 C 5.40625 -5.84375 5.101562 -6 4.6875 -6 C 4.28125 -6 3.9375 -5.859375 3.65625 -5.578125 C 3.382812 -5.304688 3.1875 -4.957031 3.0625 -4.53125 C 2.800781 -3.707031 2.671875 -2.878906 2.671875 -2.046875 C 2.671875 -1.210938 2.722656 -0.6875 2.828125 -0.46875 C 2.941406 -0.257812 3.257812 -0.15625 3.78125 -0.15625 L 3.8125 0 L 0.578125 0 L 0.59375 -0.15625 C 1.125 -0.15625 1.445312 -0.265625 1.5625 -0.484375 C 1.675781 -0.703125 1.734375 -1.28125 1.734375 -2.21875 L 1.734375 -3.28125 C 1.734375 -4.601562 1.671875 -5.40625 1.546875 -5.6875 C 1.492188 -5.78125 1.410156 -5.863281 1.296875 -5.9375 C 1.191406 -6.019531 1.070312 -6.070312 0.9375 -6.09375 C 0.8125 -6.113281 0.640625 -6.125 0.421875 -6.125 L 0.40625 -6.265625 C 1.164062 -6.367188 1.921875 -6.421875 2.671875 -6.421875 Z M 2.671875 -6.421875 "/></g></g></g><g fill="#ffffff" fill-opacity="1"><g transform="translate(167.077424, 12.492524)"><g/></g></g><g fill="#ffffff" fill-opacity="1"><g transform="translate(171.594525, 12.492524)"><g><path d="M 0.53125 -3.140625 C 0.53125 -4.066406 0.796875 -4.84375 1.328125 -5.46875 C 1.859375 -6.101562 2.578125 -6.421875 3.484375 -6.421875 C 4.398438 -6.421875 5.132812 -6.101562 5.6875 -5.46875 C 6.25 -4.84375 6.53125 -4.0625 6.53125 -3.125 C 6.53125 -2.195312 6.257812 -1.421875 5.71875 -0.796875 C 5.1875 -0.171875 4.460938 0.140625 3.546875 0.140625 C 2.640625 0.140625 1.910156 -0.171875 1.359375 -0.796875 C 0.804688 -1.429688 0.53125 -2.210938 0.53125 -3.140625 Z M 2.0625 -0.984375 C 2.414062 -0.421875 2.914062 -0.140625 3.5625 -0.140625 C 4.207031 -0.140625 4.695312 -0.414062 5.03125 -0.96875 C 5.363281 -1.53125 5.53125 -2.25 5.53125 -3.125 C 5.53125 -4.007812 5.351562 -4.734375 5 -5.296875 C 4.644531 -5.867188 4.144531 -6.15625 3.5 -6.15625 C 2.851562 -6.15625 2.363281 -5.875 2.03125 -5.3125 C 1.707031 -4.75 1.546875 -4.023438 1.546875 -3.140625 C 1.546875 -2.265625 1.71875 -1.546875 2.0625 -0.984375 Z M 2.0625 -0.984375 "/></g></g></g><g fill="#ffffff" fill-opacity="1"><g transform="translate(179.857938, 12.492524)"><g><path d="M 2.703125 -5.984375 L 2.703125 -3 C 2.703125 -2.050781 2.726562 -1.40625 2.78125 -1.0625 C 2.84375 -0.71875 2.929688 -0.5 3.046875 -0.40625 C 3.242188 -0.238281 3.566406 -0.15625 4.015625 -0.15625 L 4.03125 0 L 0.46875 0 L 0.484375 -0.15625 C 0.703125 -0.15625 0.875 -0.164062 1 -0.1875 C 1.132812 -0.207031 1.253906 -0.253906 1.359375 -0.328125 C 1.460938 -0.410156 1.535156 -0.5 1.578125 -0.59375 C 1.628906 -0.695312 1.675781 -0.867188 1.71875 -1.109375 C 1.757812 -1.421875 1.78125 -2.050781 1.78125 -3 L 1.78125 -5.984375 L 0.5625 -5.984375 L 0.5625 -6.28125 L 1.78125 -6.28125 C 1.78125 -7.957031 2.097656 -9.035156 2.734375 -9.515625 C 3.066406 -9.765625 3.46875 -9.890625 3.9375 -9.890625 C 4.414062 -9.890625 4.863281 -9.765625 5.28125 -9.515625 C 5.707031 -9.273438 5.921875 -8.992188 5.921875 -8.671875 C 5.921875 -8.535156 5.867188 -8.421875 5.765625 -8.328125 C 5.671875 -8.234375 5.535156 -8.1875 5.359375 -8.1875 C 5.191406 -8.1875 5.046875 -8.253906 4.921875 -8.390625 C 4.796875 -8.535156 4.703125 -8.6875 4.640625 -8.84375 C 4.585938 -9.007812 4.488281 -9.160156 4.34375 -9.296875 C 4.207031 -9.441406 4.035156 -9.515625 3.828125 -9.515625 C 3.367188 -9.515625 3.066406 -9.304688 2.921875 -8.890625 C 2.773438 -8.472656 2.703125 -7.8125 2.703125 -6.90625 L 2.703125 -6.28125 L 4.46875 -6.28125 L 4.46875 -5.984375 Z M 2.703125 -5.984375 "/></g></g></g><g fill="#ffffff" fill-opacity="1"><g transform="translate(185.783233, 12.492524)"><g/></g></g><g fill="#ffffff" fill-opacity="1"><g transform="translate(190.300334, 12.492524)"><g><path d="M 7.359375 0 L 0.671875 0 L 0.6875 -0.15625 C 1.132812 -0.15625 1.457031 -0.238281 1.65625 -0.40625 C 1.882812 -0.59375 2 -1.457031 2 -3 L 2 -6.296875 C 2 -7.242188 1.96875 -7.890625 1.90625 -8.234375 C 1.84375 -8.585938 1.757812 -8.8125 1.65625 -8.90625 C 1.457031 -9.070312 1.132812 -9.15625 0.6875 -9.15625 L 0.671875 -9.296875 L 6.859375 -9.296875 L 6.859375 -7.390625 L 6.703125 -7.40625 C 6.703125 -8 6.390625 -8.410156 5.765625 -8.640625 C 5.140625 -8.867188 4.1875 -8.984375 2.90625 -8.984375 L 2.90625 -4.8125 C 3.757812 -4.8125 4.367188 -4.851562 4.734375 -4.9375 C 5.109375 -5.03125 5.347656 -5.164062 5.453125 -5.34375 C 5.566406 -5.53125 5.625 -5.832031 5.625 -6.25 L 5.765625 -6.28125 L 5.765625 -3.0625 L 5.625 -3.078125 C 5.625 -3.515625 5.566406 -3.820312 5.453125 -4 C 5.347656 -4.175781 5.109375 -4.304688 4.734375 -4.390625 C 4.367188 -4.472656 3.757812 -4.515625 2.90625 -4.515625 L 2.90625 -2.796875 C 2.90625 -1.859375 2.9375 -1.234375 3 -0.921875 C 3.070312 -0.617188 3.222656 -0.414062 3.453125 -0.3125 C 5.953125 -0.3125 7.203125 -0.84375 7.203125 -1.90625 L 7.359375 -1.921875 Z M 7.359375 0 "/></g></g></g><g fill="#ffffff" fill-opacity="1"><g transform="translate(199.679679, 12.492524)"><g><path d="M 2.109375 -5.53125 C 2.109375 -5.125 2.316406 -4.394531 2.734375 -3.34375 L 3.765625 -0.765625 L 4.796875 -3.953125 C 4.992188 -4.597656 5.09375 -5.082031 5.09375 -5.40625 C 5.09375 -5.882812 4.785156 -6.125 4.171875 -6.125 L 4.140625 -6.28125 L 6.640625 -6.28125 L 6.609375 -6.125 C 6.242188 -6.125 5.988281 -6.003906 5.84375 -5.765625 C 5.695312 -5.535156 5.425781 -4.8125 5.03125 -3.59375 L 3.84375 0.046875 L 3.0625 0.046875 L 1.328125 -4.375 C 1.035156 -5.113281 0.769531 -5.585938 0.53125 -5.796875 C 0.300781 -6.015625 0.0195312 -6.125 -0.3125 -6.125 L -0.328125 -6.28125 L 2.96875 -6.28125 L 2.9375 -6.125 C 2.625 -6.125 2.40625 -6.070312 2.28125 -5.96875 C 2.164062 -5.875 2.109375 -5.726562 2.109375 -5.53125 Z M 2.109375 -5.53125 "/></g></g></g><g fill="#ffffff" fill-opacity="1"><g transform="translate(207.517965, 12.492524)"><g><path d="M 5.890625 -3.359375 L 1.546875 -3.359375 L 1.546875 -3.140625 C 1.546875 -2.203125 1.742188 -1.484375 2.140625 -0.984375 C 2.535156 -0.492188 3.03125 -0.25 3.625 -0.25 C 4.507812 -0.25 5.144531 -0.601562 5.53125 -1.3125 L 5.734375 -1.203125 C 5.273438 -0.304688 4.503906 0.140625 3.421875 0.140625 C 2.628906 0.140625 1.945312 -0.144531 1.375 -0.71875 C 0.8125 -1.300781 0.53125 -2.082031 0.53125 -3.0625 C 0.53125 -4.039062 0.78125 -4.84375 1.28125 -5.46875 C 1.78125 -6.101562 2.445312 -6.421875 3.28125 -6.421875 C 4.125 -6.421875 4.769531 -6.132812 5.21875 -5.5625 C 5.664062 -4.988281 5.890625 -4.253906 5.890625 -3.359375 Z M 3.328125 -6.15625 C 2.804688 -6.15625 2.394531 -5.929688 2.09375 -5.484375 C 1.800781 -5.046875 1.625 -4.46875 1.5625 -3.75 L 4.875 -3.75 C 4.8125 -5.351562 4.296875 -6.15625 3.328125 -6.15625 Z M 3.328125 -6.15625 "/></g></g></g><g fill="#ffffff" fill-opacity="1"><g transform="translate(215.27657, 12.492524)"><g><path d="M 4.625 -6.484375 C 4.84375 -6.484375 5.035156 -6.429688 5.203125 -6.328125 C 5.367188 -6.234375 5.453125 -6.101562 5.453125 -5.9375 C 5.453125 -5.769531 5.398438 -5.632812 5.296875 -5.53125 C 5.191406 -5.4375 5.070312 -5.390625 4.9375 -5.390625 C 4.800781 -5.390625 4.632812 -5.445312 4.4375 -5.5625 C 4.238281 -5.675781 4.03125 -5.734375 3.8125 -5.734375 C 3.46875 -5.734375 3.1875 -5.414062 2.96875 -4.78125 C 2.75 -4.144531 2.640625 -3.40625 2.640625 -2.5625 C 2.640625 -1.425781 2.695312 -0.738281 2.8125 -0.5 C 2.851562 -0.425781 2.921875 -0.351562 3.015625 -0.28125 C 3.109375 -0.21875 3.207031 -0.179688 3.3125 -0.171875 C 3.425781 -0.160156 3.578125 -0.15625 3.765625 -0.15625 L 3.796875 0 L 0.578125 0 L 0.59375 -0.15625 C 0.875 -0.15625 1.078125 -0.171875 1.203125 -0.203125 C 1.335938 -0.234375 1.445312 -0.34375 1.53125 -0.53125 C 1.625 -0.71875 1.675781 -0.945312 1.6875 -1.21875 C 1.707031 -1.5 1.71875 -1.945312 1.71875 -2.5625 L 1.71875 -3.328125 C 1.71875 -4.566406 1.679688 -5.269531 1.609375 -5.4375 C 1.546875 -5.601562 1.488281 -5.734375 1.4375 -5.828125 C 1.382812 -5.929688 1.304688 -6 1.203125 -6.03125 C 1.003906 -6.082031 0.742188 -6.109375 0.421875 -6.109375 L 0.40625 -6.25 C 1.15625 -6.363281 1.898438 -6.421875 2.640625 -6.421875 L 2.640625 -4.46875 C 2.742188 -5.09375 2.960938 -5.582031 3.296875 -5.9375 C 3.640625 -6.300781 4.082031 -6.484375 4.625 -6.484375 Z M 4.625 -6.484375 "/></g></g></g><g clip-path="url(#8366ae3037)"><g fill="#ffffff" fill-opacity="1"><g transform="translate(221.93252, 12.492524)"><g><path d="M 1.28125 2.796875 C 1.726562 2.796875 2.097656 2.625 2.390625 2.28125 C 2.691406 1.9375 3 1.382812 3.3125 0.625 L 1.328125 -4.375 C 1.035156 -5.113281 0.769531 -5.585938 0.53125 -5.796875 C 0.300781 -6.015625 0.0195312 -6.125 -0.3125 -6.125 L -0.328125 -6.28125 L 2.96875 -6.28125 L 2.9375 -6.125 C 2.625 -6.125 2.40625 -6.070312 2.28125 -5.96875 C 2.164062 -5.875 2.109375 -5.726562 2.109375 -5.53125 C 2.109375 -5.125 2.316406 -4.394531 2.734375 -3.34375 L 3.765625 -0.765625 L 4.796875 -3.953125 C 4.992188 -4.597656 5.09375 -5.082031 5.09375 -5.40625 C 5.09375 -5.882812 4.785156 -6.125 4.171875 -6.125 L 4.140625 -6.28125 L 6.640625 -6.28125 L 6.609375 -6.125 C 6.242188 -6.125 5.988281 -6.003906 5.84375 -5.765625 C 5.695312 -5.535156 5.425781 -4.8125 5.03125 -3.59375 L 3.84375 0.046875 C 3.445312 1.234375 2.988281 2.148438 2.46875 2.796875 C 1.945312 3.441406 1.40625 3.765625 0.84375 3.765625 C 0.582031 3.765625 0.367188 3.710938 0.203125 3.609375 C 0.0351562 3.515625 -0.046875 3.375 -0.046875 3.1875 C -0.046875 3.007812 0.00390625 2.867188 0.109375 2.765625 C 0.222656 2.660156 0.34375 2.609375 0.46875 2.609375 C 0.601562 2.609375 0.75 2.640625 0.90625 2.703125 C 1.0625 2.765625 1.1875 2.796875 1.28125 2.796875 Z M 1.28125 2.796875 "/></g></g></g></g><g fill="#ffffff" fill-opacity="1"><g transform="translate(229.770828, 12.492524)"><g/></g></g><g fill="#ffffff" fill-opacity="1"><g transform="translate(234.287929, 12.492524)"><g><path d="M 2.921875 -6.296875 L 2.921875 -3 C 2.921875 -2.050781 2.945312 -1.40625 3 -1.0625 C 3.0625 -0.71875 3.144531 -0.5 3.25 -0.40625 C 3.457031 -0.238281 3.78125 -0.15625 4.21875 -0.15625 L 4.25 0 L 0.671875 0 L 0.6875 -0.15625 C 0.90625 -0.15625 1.078125 -0.164062 1.203125 -0.1875 C 1.328125 -0.207031 1.445312 -0.253906 1.5625 -0.328125 C 1.675781 -0.410156 1.753906 -0.5 1.796875 -0.59375 C 1.847656 -0.695312 1.890625 -0.867188 1.921875 -1.109375 C 1.972656 -1.421875 2 -2.050781 2 -3 L 2 -6.296875 C 2 -7.210938 1.96875 -7.851562 1.90625 -8.21875 C 1.851562 -8.582031 1.773438 -8.8125 1.671875 -8.90625 C 1.460938 -9.070312 1.132812 -9.15625 0.6875 -9.15625 L 0.671875 -9.296875 L 4.25 -9.296875 L 4.21875 -9.15625 C 3.78125 -9.15625 3.457031 -9.070312 3.25 -8.90625 C 3.03125 -8.71875 2.921875 -7.847656 2.921875 -6.296875 Z M 2.921875 -6.296875 "/></g></g></g><g fill="#ffffff" fill-opacity="1"><g transform="translate(240.399195, 12.492524)"><g><path d="M 2.671875 -6.421875 L 2.671875 -4.03125 C 2.753906 -4.675781 2.972656 -5.234375 3.328125 -5.703125 C 3.691406 -6.179688 4.175781 -6.421875 4.78125 -6.421875 C 6.132812 -6.421875 6.8125 -5.710938 6.8125 -4.296875 L 6.8125 -2.1875 C 6.8125 -1.269531 6.867188 -0.703125 6.984375 -0.484375 C 7.109375 -0.265625 7.425781 -0.15625 7.9375 -0.15625 L 7.96875 0 L 4.734375 0 L 4.765625 -0.15625 C 5.296875 -0.15625 5.613281 -0.265625 5.71875 -0.484375 C 5.832031 -0.710938 5.890625 -1.320312 5.890625 -2.3125 L 5.890625 -4.15625 C 5.890625 -4.769531 5.789062 -5.226562 5.59375 -5.53125 C 5.40625 -5.84375 5.101562 -6 4.6875 -6 C 4.28125 -6 3.9375 -5.859375 3.65625 -5.578125 C 3.382812 -5.304688 3.1875 -4.957031 3.0625 -4.53125 C 2.800781 -3.707031 2.671875 -2.878906 2.671875 -2.046875 C 2.671875 -1.210938 2.722656 -0.6875 2.828125 -0.46875 C 2.941406 -0.257812 3.257812 -0.15625 3.78125 -0.15625 L 3.8125 0 L 0.578125 0 L 0.59375 -0.15625 C 1.125 -0.15625 1.445312 -0.265625 1.5625 -0.484375 C 1.675781 -0.703125 1.734375 -1.28125 1.734375 -2.21875 L 1.734375 -3.28125 C 1.734375 -4.601562 1.671875 -5.40625 1.546875 -5.6875 C 1.492188 -5.78125 1.410156 -5.863281 1.296875 -5.9375 C 1.191406 -6.019531 1.070312 -6.070312 0.9375 -6.09375 C 0.8125 -6.113281 0.640625 -6.125 0.421875 -6.125 L 0.40625 -6.265625 C 1.164062 -6.367188 1.921875 -6.421875 2.671875 -6.421875 Z M 2.671875 -6.421875 "/></g></g></g><g fill="#ffffff" fill-opacity="1"><g transform="translate(249.964546, 12.492524)"><g><path d="M 5.015625 -1.46875 C 4.878906 -1.007812 4.640625 -0.625 4.296875 -0.3125 C 3.953125 -0.0078125 3.535156 0.140625 3.046875 0.140625 C 2.554688 0.140625 2.144531 0.0390625 1.8125 -0.15625 C 1.488281 -0.351562 1.238281 -0.613281 1.0625 -0.9375 C 0.707031 -1.539062 0.53125 -2.28125 0.53125 -3.15625 C 0.53125 -4.03125 0.832031 -4.789062 1.4375 -5.4375 C 2.039062 -6.09375 2.847656 -6.421875 3.859375 -6.421875 C 4.296875 -6.421875 4.695312 -6.363281 5.0625 -6.25 L 5.0625 -7.515625 C 5.0625 -8.179688 5.035156 -8.628906 4.984375 -8.859375 C 4.941406 -9.097656 4.875 -9.242188 4.78125 -9.296875 C 4.601562 -9.398438 4.320312 -9.453125 3.9375 -9.453125 L 3.921875 -9.609375 C 4.554688 -9.710938 5.242188 -9.765625 5.984375 -9.765625 L 5.984375 -2.953125 C 5.984375 -1.960938 6.015625 -1.316406 6.078125 -1.015625 C 6.140625 -0.710938 6.289062 -0.5625 6.53125 -0.5625 C 6.6875 -0.5625 6.882812 -0.625 7.125 -0.75 L 7.203125 -0.609375 C 7.128906 -0.554688 7.035156 -0.492188 6.921875 -0.421875 C 6.804688 -0.347656 6.570312 -0.25 6.21875 -0.125 C 5.863281 0 5.519531 0.0625 5.1875 0.0625 C 5.070312 -0.414062 5.015625 -0.925781 5.015625 -1.46875 Z M 1.859375 -1.25 C 1.960938 -0.957031 2.128906 -0.722656 2.359375 -0.546875 C 2.585938 -0.367188 2.863281 -0.28125 3.1875 -0.28125 C 3.507812 -0.28125 3.800781 -0.390625 4.0625 -0.609375 C 4.320312 -0.828125 4.519531 -1.113281 4.65625 -1.46875 C 4.925781 -2.125 5.0625 -2.804688 5.0625 -3.515625 L 5.0625 -5.546875 C 4.675781 -5.847656 4.257812 -6 3.8125 -6 C 3.363281 -6 2.988281 -5.898438 2.6875 -5.703125 C 2.382812 -5.515625 2.15625 -5.257812 2 -4.9375 C 1.695312 -4.34375 1.546875 -3.710938 1.546875 -3.046875 C 1.546875 -2.398438 1.648438 -1.800781 1.859375 -1.25 Z M 1.859375 -1.25 "/></g></g></g><g fill="#ffffff" fill-opacity="1"><g transform="translate(258.62649, 12.492524)"><g><path d="M 1.625 -8 C 1.476562 -8.15625 1.40625 -8.332031 1.40625 -8.53125 C 1.40625 -8.738281 1.476562 -8.914062 1.625 -9.0625 C 1.78125 -9.21875 1.957031 -9.296875 2.15625 -9.296875 C 2.363281 -9.296875 2.539062 -9.21875 2.6875 -9.0625 C 2.84375 -8.914062 2.921875 -8.738281 2.921875 -8.53125 C 2.921875 -8.332031 2.84375 -8.15625 2.6875 -8 C 2.539062 -7.851562 2.363281 -7.78125 2.15625 -7.78125 C 1.957031 -7.78125 1.78125 -7.851562 1.625 -8 Z M 2.671875 -6.421875 L 2.671875 -2.1875 C 2.671875 -1.257812 2.722656 -0.6875 2.828125 -0.46875 C 2.941406 -0.257812 3.257812 -0.15625 3.78125 -0.15625 L 3.8125 0 L 0.578125 0 L 0.59375 -0.15625 C 1.125 -0.15625 1.445312 -0.265625 1.5625 -0.484375 C 1.675781 -0.703125 1.734375 -1.28125 1.734375 -2.21875 L 1.734375 -3.140625 C 1.734375 -4.171875 1.703125 -4.851562 1.640625 -5.1875 C 1.585938 -5.519531 1.507812 -5.734375 1.40625 -5.828125 C 1.195312 -6.023438 0.867188 -6.125 0.421875 -6.125 L 0.40625 -6.265625 C 1.164062 -6.367188 1.921875 -6.421875 2.671875 -6.421875 Z M 2.671875 -6.421875 "/></g></g></g><g fill="#ffffff" fill-opacity="1"><g transform="translate(264.033687, 12.492524)"><g><path d="M 5.46875 -4.296875 L 5.46875 -2.953125 C 5.46875 -1.960938 5.5 -1.316406 5.5625 -1.015625 C 5.625 -0.710938 5.773438 -0.5625 6.015625 -0.5625 C 6.171875 -0.5625 6.367188 -0.625 6.609375 -0.75 L 6.6875 -0.609375 C 6.613281 -0.554688 6.519531 -0.492188 6.40625 -0.421875 C 6.289062 -0.347656 6.054688 -0.25 5.703125 -0.125 C 5.347656 0 5.003906 0.0625 4.671875 0.0625 C 4.585938 -0.300781 4.546875 -0.894531 4.546875 -1.71875 C 4.347656 -1.164062 4.09375 -0.71875 3.78125 -0.375 C 3.46875 -0.03125 3.03125 0.140625 2.46875 0.140625 C 1.914062 0.140625 1.476562 -0.00390625 1.15625 -0.296875 C 0.832031 -0.597656 0.671875 -1.007812 0.671875 -1.53125 C 0.671875 -2.957031 1.960938 -3.671875 4.546875 -3.671875 L 4.546875 -4.15625 C 4.546875 -4.789062 4.453125 -5.273438 4.265625 -5.609375 C 4.078125 -5.953125 3.734375 -6.125 3.234375 -6.125 C 2.941406 -6.125 2.707031 -6.050781 2.53125 -5.90625 C 2.351562 -5.769531 2.234375 -5.617188 2.171875 -5.453125 C 2.023438 -4.984375 1.800781 -4.75 1.5 -4.75 C 1.207031 -4.75 1.0625 -4.914062 1.0625 -5.25 C 1.0625 -5.582031 1.28125 -5.859375 1.71875 -6.078125 C 2.164062 -6.304688 2.703125 -6.421875 3.328125 -6.421875 C 3.960938 -6.421875 4.476562 -6.238281 4.875 -5.875 C 5.269531 -5.519531 5.46875 -4.992188 5.46875 -4.296875 Z M 1.671875 -1.46875 C 1.671875 -1.125 1.753906 -0.835938 1.921875 -0.609375 C 2.085938 -0.390625 2.351562 -0.28125 2.71875 -0.28125 C 3.09375 -0.28125 3.429688 -0.457031 3.734375 -0.8125 C 4.035156 -1.175781 4.238281 -1.578125 4.34375 -2.015625 C 4.457031 -2.453125 4.523438 -2.90625 4.546875 -3.375 C 3.554688 -3.363281 2.828125 -3.179688 2.359375 -2.828125 C 1.898438 -2.472656 1.671875 -2.019531 1.671875 -1.46875 Z M 1.671875 -1.46875 "/></g></g></g><g fill="#ffffff" fill-opacity="1"><g transform="translate(272.243961, 12.492524)"><g><path d="M 2.671875 -6.421875 L 2.671875 -4.03125 C 2.753906 -4.675781 2.972656 -5.234375 3.328125 -5.703125 C 3.691406 -6.179688 4.175781 -6.421875 4.78125 -6.421875 C 6.132812 -6.421875 6.8125 -5.710938 6.8125 -4.296875 L 6.8125 -2.1875 C 6.8125 -1.269531 6.867188 -0.703125 6.984375 -0.484375 C 7.109375 -0.265625 7.425781 -0.15625 7.9375 -0.15625 L 7.96875 0 L 4.734375 0 L 4.765625 -0.15625 C 5.296875 -0.15625 5.613281 -0.265625 5.71875 -0.484375 C 5.832031 -0.710938 5.890625 -1.320312 5.890625 -2.3125 L 5.890625 -4.15625 C 5.890625 -4.769531 5.789062 -5.226562 5.59375 -5.53125 C 5.40625 -5.84375 5.101562 -6 4.6875 -6 C 4.28125 -6 3.9375 -5.859375 3.65625 -5.578125 C 3.382812 -5.304688 3.1875 -4.957031 3.0625 -4.53125 C 2.800781 -3.707031 2.671875 -2.878906 2.671875 -2.046875 C 2.671875 -1.210938 2.722656 -0.6875 2.828125 -0.46875 C 2.941406 -0.257812 3.257812 -0.15625 3.78125 -0.15625 L 3.8125 0 L 0.578125 0 L 0.59375 -0.15625 C 1.125 -0.15625 1.445312 -0.265625 1.5625 -0.484375 C 1.675781 -0.703125 1.734375 -1.28125 1.734375 -2.21875 L 1.734375 -3.28125 C 1.734375 -4.601562 1.671875 -5.40625 1.546875 -5.6875 C 1.492188 -5.78125 1.410156 -5.863281 1.296875 -5.9375 C 1.191406 -6.019531 1.070312 -6.070312 0.9375 -6.09375 C 0.8125 -6.113281 0.640625 -6.125 0.421875 -6.125 L 0.40625 -6.265625 C 1.164062 -6.367188 1.921875 -6.421875 2.671875 -6.421875 Z M 2.671875 -6.421875 "/></g></g></g><g fill="#ffffff" fill-opacity="1"><g transform="translate(281.810188, 12.492524)"><g/></g></g></g></g><g transform="matrix(1, 0, 0, 1, 24, 161)"><g clip-path="url(#21c7316a95)"><g fill="#ffa101" fill-opacity="1"><g transform="translate(0.655465, 53.235492)"><g><path d="M 39.515625 -11.046875 L 39.515625 -3.71875 C 37.546875 -2.5 35.171875 -1.472656 32.390625 -0.640625 C 29.617188 0.179688 26.796875 0.59375 23.921875 0.59375 C 17.660156 0.59375 12.597656 -1.429688 8.734375 -5.484375 C 4.878906 -9.546875 2.953125 -14.609375 2.953125 -20.671875 C 2.953125 -26.742188 4.8125 -31.796875 8.53125 -35.828125 C 12.257812 -39.867188 17.273438 -41.890625 23.578125 -41.890625 C 26.328125 -41.890625 29.097656 -41.503906 31.890625 -40.734375 C 34.691406 -39.960938 36.765625 -39.144531 38.109375 -38.28125 L 38.109375 -30.71875 L 37.453125 -30.84375 C 37.023438 -33.988281 35.488281 -36.390625 32.84375 -38.046875 C 30.207031 -39.703125 27.117188 -40.53125 23.578125 -40.53125 C 18.535156 -40.53125 14.691406 -38.71875 12.046875 -35.09375 C 9.410156 -31.46875 8.09375 -26.671875 8.09375 -20.703125 C 8.09375 -14.734375 9.46875 -9.914062 12.21875 -6.25 C 14.976562 -2.59375 18.988281 -0.765625 24.25 -0.765625 C 29.507812 -0.765625 33.222656 -2.421875 35.390625 -5.734375 L 35.390625 -10.34375 C 35.390625 -14.707031 35.140625 -17.390625 34.640625 -18.390625 C 34.148438 -19.398438 32.722656 -19.90625 30.359375 -19.90625 L 30.25 -20.5 L 44.71875 -20.5 L 44.609375 -19.90625 C 42.359375 -19.90625 40.945312 -19.375 40.375 -18.3125 C 39.800781 -17.25 39.515625 -14.828125 39.515625 -11.046875 Z M 39.515625 -11.046875 "/></g></g></g><g fill="#ffa101" fill-opacity="1"><g transform="translate(52.940371, 53.235492)"><g><path d="M 31.25 0 L 3.015625 0 L 3.125 -0.703125 C 4.070312 -0.703125 4.832031 -0.738281 5.40625 -0.8125 C 5.976562 -0.894531 6.5 -1.113281 6.96875 -1.46875 C 7.445312 -1.832031 7.789062 -2.238281 8 -2.6875 C 8.21875 -3.144531 8.40625 -3.90625 8.5625 -4.96875 C 8.757812 -6.34375 8.859375 -9.140625 8.859375 -13.359375 L 8.859375 -28 C 8.859375 -33.875 8.582031 -37.441406 8.03125 -38.703125 C 7.519531 -39.796875 6.65625 -40.425781 5.4375 -40.59375 C 4.84375 -40.664062 4.070312 -40.703125 3.125 -40.703125 L 3.015625 -41.359375 L 18.90625 -41.359375 L 18.78125 -40.703125 C 16.8125 -40.703125 15.375 -40.328125 14.46875 -39.578125 C 13.488281 -38.753906 13 -34.894531 13 -28 L 13 -12.46875 C 13 -8.207031 13.132812 -5.378906 13.40625 -3.984375 C 13.6875 -2.585938 14.335938 -1.65625 15.359375 -1.1875 C 25.523438 -1.1875 30.609375 -3.609375 30.609375 -8.453125 L 31.25 -8.5625 Z M 31.25 0 "/></g></g></g><g fill="#ffa101" fill-opacity="1"><g transform="translate(90.987567, 53.235492)"><g><path d="M 22.625 -41.890625 C 28.96875 -41.890625 34.039062 -39.945312 37.84375 -36.0625 C 41.644531 -32.1875 43.546875 -27.164062 43.546875 -21 C 43.546875 -14.832031 41.703125 -9.691406 38.015625 -5.578125 C 34.335938 -1.460938 29.347656 0.59375 23.046875 0.59375 C 16.742188 0.59375 11.671875 -1.472656 7.828125 -5.609375 C 3.984375 -9.742188 2.0625 -14.894531 2.0625 -21.0625 C 2.0625 -27.226562 3.898438 -32.238281 7.578125 -36.09375 C 11.265625 -39.957031 16.28125 -41.890625 22.625 -41.890625 Z M 23.015625 -0.765625 C 28.035156 -0.765625 31.851562 -2.585938 34.46875 -6.234375 C 37.09375 -9.878906 38.40625 -14.675781 38.40625 -20.625 C 38.40625 -26.570312 37.023438 -31.375 34.265625 -35.03125 C 31.503906 -38.695312 27.613281 -40.53125 22.59375 -40.53125 C 17.570312 -40.53125 13.75 -38.71875 11.125 -35.09375 C 8.507812 -31.46875 7.203125 -26.671875 7.203125 -20.703125 C 7.203125 -14.734375 8.582031 -9.914062 11.34375 -6.25 C 14.101562 -2.59375 17.992188 -0.765625 23.015625 -0.765625 Z M 23.015625 -0.765625 "/></g></g></g><g fill="#ffa101" fill-opacity="1"><g transform="translate(141.91369, 53.235492)"><g><path d="M 12.46875 -38.421875 C 12.46875 -37.503906 12.679688 -36.375 13.109375 -35.03125 C 13.546875 -33.695312 13.820312 -32.8125 13.9375 -32.375 C 14.375 -31.070312 14.828125 -29.710938 15.296875 -28.296875 L 23.515625 -3.421875 L 31.25 -27.65625 C 29.082031 -33.945312 27.566406 -37.644531 26.703125 -38.75 C 26.347656 -39.144531 25.863281 -39.53125 25.25 -39.90625 C 24.644531 -40.28125 24.066406 -40.492188 23.515625 -40.546875 C 22.960938 -40.609375 22.191406 -40.640625 21.203125 -40.640625 L 21.09375 -41.359375 L 36.984375 -41.359375 L 36.859375 -40.640625 C 35.328125 -40.640625 34.265625 -40.492188 33.671875 -40.203125 C 33.078125 -39.910156 32.78125 -39.179688 32.78125 -38.015625 C 32.78125 -36.859375 33.6875 -33.617188 35.5 -28.296875 L 43.84375 -3.421875 L 51.640625 -28.296875 C 53.171875 -33.265625 53.9375 -36.632812 53.9375 -38.40625 C 53.9375 -39.3125 53.570312 -39.910156 52.84375 -40.203125 C 52.113281 -40.492188 50.984375 -40.640625 49.453125 -40.640625 L 49.328125 -41.359375 L 63.6875 -41.359375 L 63.625 -40.640625 C 61.65625 -40.640625 60.195312 -40.394531 59.25 -39.90625 C 58.3125 -39.414062 57.40625 -38.34375 56.53125 -36.6875 C 55.664062 -35.03125 54.601562 -32.234375 53.34375 -28.296875 L 44.3125 0.296875 L 40.53125 0.296875 L 31.96875 -25.21875 L 24.046875 0.296875 L 20.328125 0.296875 L 10.75 -28.296875 C 9.6875 -31.484375 8.890625 -33.773438 8.359375 -35.171875 C 7.828125 -36.578125 7.175781 -37.757812 6.40625 -38.71875 C 5.644531 -39.6875 4.90625 -40.25 4.1875 -40.40625 C 3.476562 -40.5625 2.394531 -40.640625 0.9375 -40.640625 L 0.828125 -41.359375 L 16.71875 -41.359375 L 16.59375 -40.640625 C 15.0625 -40.640625 13.988281 -40.5 13.375 -40.21875 C 12.769531 -39.945312 12.46875 -39.347656 12.46875 -38.421875 Z M 12.46875 -38.421875 "/></g></g></g><g fill="#ffa101" fill-opacity="1"><g transform="translate(211.685585, 53.235492)"><g><path d="M 12.046875 -38.78125 C 12.046875 -38.09375 12.09375 -37.5625 12.1875 -37.1875 C 12.289062 -36.8125 12.375 -36.503906 12.4375 -36.265625 C 12.5 -36.035156 12.585938 -35.710938 12.703125 -35.296875 C 12.816406 -34.878906 12.921875 -34.523438 13.015625 -34.234375 C 13.117188 -33.941406 13.269531 -33.519531 13.46875 -32.96875 C 13.664062 -32.414062 13.832031 -31.960938 13.96875 -31.609375 C 14.101562 -31.253906 14.300781 -30.722656 14.5625 -30.015625 C 14.820312 -29.304688 15.03125 -28.734375 15.1875 -28.296875 L 24.40625 -3.1875 L 33.140625 -28.296875 C 34.878906 -33.296875 35.75 -36.425781 35.75 -37.6875 C 35.75 -38.945312 35.410156 -39.753906 34.734375 -40.109375 C 34.066406 -40.460938 32.90625 -40.640625 31.25 -40.640625 L 31.140625 -41.359375 L 45.609375 -41.359375 L 45.484375 -40.640625 C 43.992188 -40.640625 42.863281 -40.539062 42.09375 -40.34375 C 41.320312 -40.15625 40.515625 -39.625 39.671875 -38.75 C 38.828125 -37.882812 38.050781 -36.664062 37.34375 -35.09375 C 36.632812 -33.519531 35.765625 -31.253906 34.734375 -28.296875 L 24.8125 0.296875 L 21.09375 0.296875 L 10.640625 -28.296875 C 8.429688 -34.203125 6.875 -37.6875 5.96875 -38.75 C 5.613281 -39.1875 5.128906 -39.582031 4.515625 -39.9375 C 3.910156 -40.289062 3.320312 -40.492188 2.75 -40.546875 C 2.175781 -40.609375 1.394531 -40.640625 0.40625 -40.640625 L 0.296875 -41.359375 L 16.25 -41.359375 L 16.125 -40.640625 C 14.632812 -40.640625 13.582031 -40.5 12.96875 -40.21875 C 12.351562 -39.945312 12.046875 -39.46875 12.046875 -38.78125 Z M 12.046875 -38.78125 "/></g></g></g><g fill="#ffa101" fill-opacity="1"><g transform="translate(262.907086, 53.235492)"><g><path d="M 26.171875 -0.703125 C 27.671875 -0.703125 28.722656 -0.820312 29.328125 -1.0625 C 29.941406 -1.300781 30.25 -1.910156 30.25 -2.890625 C 30.25 -3.878906 29.203125 -7.226562 27.109375 -12.9375 L 9.09375 -12.9375 C 7.40625 -7.9375 6.5625 -4.796875 6.5625 -3.515625 C 6.5625 -2.234375 6.882812 -1.441406 7.53125 -1.140625 C 8.175781 -0.847656 9.347656 -0.703125 11.046875 -0.703125 L 11.171875 0 L -2.125 0 L -2.015625 -0.703125 C -0.867188 -0.703125 0.0234375 -0.800781 0.671875 -1 C 1.328125 -1.195312 2.035156 -1.71875 2.796875 -2.5625 C 3.566406 -3.414062 4.304688 -4.648438 5.015625 -6.265625 C 5.722656 -7.878906 6.570312 -10.144531 7.5625 -13.0625 L 12.8125 -28.234375 C 14.664062 -33.597656 15.59375 -36.847656 15.59375 -37.984375 C 15.59375 -39.128906 15.316406 -39.867188 14.765625 -40.203125 C 14.210938 -40.535156 13.148438 -40.703125 11.578125 -40.703125 L 11.46875 -41.359375 L 21.203125 -41.359375 L 31.671875 -13.0625 C 33.441406 -8.375 34.628906 -5.398438 35.234375 -4.140625 C 35.847656 -2.878906 36.429688 -2.070312 36.984375 -1.71875 C 37.960938 -1.039062 39.203125 -0.703125 40.703125 -0.703125 L 40.828125 0 L 26.046875 0 Z M 17.90625 -38.171875 L 9.578125 -14.359375 L 26.640625 -14.359375 Z M 17.90625 -38.171875 "/></g></g></g><g fill="#ffa101" fill-opacity="1"><g transform="translate(306.921141, 53.235492)"><g><path d="M 13 -28 L 13 -13.359375 C 13 -9.140625 13.125 -6.257812 13.375 -4.71875 C 13.632812 -3.1875 14 -2.222656 14.46875 -1.828125 C 15.375 -1.078125 16.8125 -0.703125 18.78125 -0.703125 L 18.90625 0 L 2.953125 0 L 3.078125 -0.703125 C 4.054688 -0.703125 4.820312 -0.738281 5.375 -0.8125 C 5.925781 -0.894531 6.445312 -1.113281 6.9375 -1.46875 C 7.4375 -1.832031 7.789062 -2.238281 8 -2.6875 C 8.21875 -3.144531 8.40625 -3.90625 8.5625 -4.96875 C 8.757812 -6.34375 8.859375 -9.140625 8.859375 -13.359375 L 8.859375 -28 C 8.859375 -32.09375 8.738281 -34.945312 8.5 -36.5625 C 8.269531 -38.175781 7.914062 -39.179688 7.4375 -39.578125 C 6.5 -40.328125 5.046875 -40.703125 3.078125 -40.703125 L 2.953125 -41.359375 L 18.90625 -41.359375 L 18.78125 -40.703125 C 16.8125 -40.703125 15.375 -40.328125 14.46875 -39.578125 C 13.488281 -38.753906 13 -34.894531 13 -28 Z M 13 -28 "/></g></g></g><g fill="#ffa101" fill-opacity="1"><g transform="translate(334.104877, 53.235492)"><g/></g></g></g></g></svg>