<?xml version="1.0" encoding="UTF-8"?>
<svg version="1.1" xmlns="http://www.w3.org/2000/svg" width="540" height="228">
<path d="M0 0 C6.6 0.33 13.2 0.66 20 1 C20 1.66 20 2.32 20 3 C18.3603125 3.37125 18.3603125 3.37125 16.6875 3.75 C12.66547328 5.11339889 12.10112982 5.51908273 10 9 C9.07584912 11.35972678 8.2475413 13.6740988 7.4765625 16.08203125 C7.13448257 17.11888313 7.13448257 17.11888313 6.78549194 18.17668152 C6.05821585 20.38636259 5.34139342 22.59926971 4.625 24.8125 C4.15174334 26.25739147 3.67779086 27.70205523 3.203125 29.14648438 C2.26380575 32.00751347 1.32827771 34.86973952 0.39550781 37.73291016 C-1.70362149 44.16613711 -3.85218566 50.58289259 -6 57 C-8.97 57.495 -8.97 57.495 -12 58 C-14.87725285 51.04506357 -17.40949743 44.02709368 -19.75 36.875 C-20.22373047 35.44027344 -20.22373047 35.44027344 -20.70703125 33.9765625 C-21.47415429 31.65194724 -22.23843282 29.32644006 -23 27 C-23.23187012 27.69561035 -23.46374023 28.3912207 -23.70263672 29.10791016 C-26.80175781 38.40527344 -29.90087891 47.70263672 -33 57 C-34.98 57 -36.96 57 -39 57 C-43.07592339 47.42390471 -46.29165151 37.53847073 -49.625 27.6875 C-50.5037936 25.09525181 -51.38337718 22.5032783 -52.26449585 19.91181946 C-52.80910786 18.30960304 -53.35233405 16.70691468 -53.89395142 15.10368347 C-55.16581446 11.35749837 -56.48191652 7.6558021 -58 4 C-60.31 3.67 -62.62 3.34 -65 3 C-65 2.34 -65 1.68 -65 1 C-57.74 1 -50.48 1 -43 1 C-43 1.66 -43 2.32 -43 3 C-44.98 3.33 -46.96 3.66 -49 4 C-44.38 18.19 -39.76 32.38 -35 47 C-32.1509633 42.72644495 -30.88835695 38.11336615 -29.3125 33.25 C-28.97927734 32.27289063 -28.64605469 31.29578125 -28.30273438 30.2890625 C-25.8923589 22.85247786 -25.58943919 17.45903188 -28.875 10.1875 C-29.36613281 9.06408203 -29.36613281 9.06408203 -29.8671875 7.91796875 C-31.43143886 5.26952938 -33.26183839 4.21090332 -36.1875 3.375 C-36.785625 3.25125 -37.38375 3.1275 -38 3 C-38 2.34 -38 1.68 -38 1 C-30.74 1 -23.48 1 -16 1 C-16 1.66 -16 2.32 -16 3 C-17.65 3.66 -19.3 4.32 -21 5 C-18.99709881 13.72340503 -16.41570421 22.19570691 -13.55615234 30.66772461 C-12.86362307 32.72123526 -12.17943618 34.77740048 -11.49609375 36.83398438 C-9.982146 42.86680012 -9.982146 42.86680012 -7 48 C-5.44495308 43.00329925 -3.89693551 38.00449376 -2.35522461 33.00366211 C-1.8304314 31.30483198 -1.30376491 29.60657929 -0.77514648 27.90893555 C-0.01305771 25.46033929 0.74213795 23.00970473 1.49609375 20.55859375 C1.73154404 19.80726669 1.96699432 19.05593964 2.20957947 18.28184509 C3.56344652 13.85273876 4.46680383 9.60246441 5 5 C3.35 4.34 1.7 3.68 0 3 C0 2.01 0 1.02 0 0 Z " fill="#F8A10D" transform="translate(285,91)"/>
<path d="M0 0 C6.30135931 6.20490993 8.52028446 13.75706474 8.84375 22.3828125 C8.60706699 31.46030213 5.79397932 38.89290036 -0.46875 45.5078125 C-7.0387215 50.93518026 -14.37741288 52.00395016 -22.6640625 51.8203125 C-30.3218897 50.9670727 -37.52870745 47.47598573 -42.46875 41.5078125 C-48.24814221 33.11742585 -48.96819341 23.36944114 -47.46875 13.5078125 C-45.4078549 6.75312366 -41.70172739 1.04242625 -35.55078125 -2.640625 C-24.21792319 -8.6366212 -10.31050169 -8.1219518 0 0 Z M-34.21875 2.1953125 C-39.45141176 9.20088268 -41.03727077 17.78366502 -40.18359375 26.37890625 C-38.98314794 33.81360007 -36.81749664 40.01048957 -31.46875 45.5078125 C-25.90658805 48.73386643 -20.83635651 49.25756385 -14.46875 48.5078125 C-8.33454882 46.50240058 -4.36482768 42.14373674 -1.42578125 36.5078125 C1.92482549 27.95039435 1.78809402 17.96627903 -1.5546875 9.4375 C-3.97220367 4.33385475 -6.77643785 0.6751232 -11.46875 -2.4921875 C-19.75398419 -5.08239529 -27.89534451 -3.98437923 -34.21875 2.1953125 Z " fill="#FBA107" transform="translate(201.46875,97.4921875)"/>
<path d="M0 0 C1 1 1 1 1.09765625 3.50390625 C1.08605469 4.51324219 1.07445312 5.52257812 1.0625 6.5625 C1.05347656 7.57441406 1.04445312 8.58632812 1.03515625 9.62890625 C1.02355469 10.41136719 1.01195312 11.19382812 1 12 C0.34 12 -0.32 12 -1 12 C-1.34611328 11.18595703 -1.34611328 11.18595703 -1.69921875 10.35546875 C-3.76438061 5.82517297 -5.21835336 3.03219982 -10 1 C-15.71461654 -0.66824209 -21.06187583 -0.58143725 -26.75 1.125 C-32.24459363 4.29495787 -34.78659899 7.75459848 -36.8125 13.625 C-39.76798566 24.9543617 -38.11641452 34.94328939 -32.25 45 C-27.05424683 49.61844726 -21.13602548 50.50610848 -14.3359375 50.296875 C-10.02082256 49.74846574 -7.03132251 48.03132251 -4 45 C-3.38795643 39.32562999 -4.02647738 33.59775505 -5 28 C-7.475 27.01 -7.475 27.01 -10 26 C-8 24 -8 24 -6.12060547 23.86474609 C-5.37697754 23.91711426 -4.63334961 23.96948242 -3.8671875 24.0234375 C-3.06152344 24.075 -2.25585938 24.1265625 -1.42578125 24.1796875 C-0.16314453 24.27636719 -0.16314453 24.27636719 1.125 24.375 C1.97449219 24.43171875 2.82398438 24.4884375 3.69921875 24.546875 C5.8001345 24.68850977 7.90017334 24.84304326 10 25 C9.67 25.66 9.34 26.32 9 27 C8.34 27.144375 7.68 27.28875 7 27.4375 C6.34 27.623125 5.68 27.80875 5 28 C3.50915763 32.47252712 3.75392031 37.15173396 3.74609375 41.83984375 C3.671875 44.09375 3.671875 44.09375 3 48 C-2.96984266 53.17246473 -12.82970098 54.59027338 -20.53125 54.2734375 C-29.66757049 53.26150327 -35.95635073 50.01803354 -42 43 C-46.88860011 35.85616172 -47.93448945 26.57629771 -46.5234375 18.15625 C-44.32739731 10.14432316 -40.17648437 3.39640484 -33 -1 C-22.10668536 -5.35102003 -10.68610022 -4.6704096 0 0 Z " fill="#F9A510" transform="translate(81,95)"/>
<path d="M0 0 C4.62 0 9.24 0 14 0 C16.77269953 6.08829728 19.25795064 12.19863079 21.53125 18.48828125 C22.18311189 20.26384885 22.83547004 22.03923433 23.48828125 23.81445312 C24.50038364 26.57542705 25.50903825 29.33748747 26.50927734 32.1027832 C27.48577977 34.79755889 28.47610514 37.4869172 29.46875 40.17578125 C29.76366333 41.00185379 30.05857666 41.82792633 30.36242676 42.67903137 C31.94723156 46.93765227 33.28582142 50.14659245 37 53 C37.99 53.33 38.98 53.66 40 54 C40 54.66 40 55.32 40 56 C33.30386804 56.797837 26.74233419 57.12910853 20 57 C20 56.01 20 55.02 20 54 C21.98 53.505 21.98 53.505 24 53 C23.87625 51.783125 23.7525 50.56625 23.625 49.3125 C23.52058594 48.28576172 23.52058594 48.28576172 23.4140625 47.23828125 C22.97763219 44.46968886 22.97763219 44.46968886 21 40 C13.41 39.67 5.82 39.34 -2 39 C-3.82715025 46.11181451 -3.82715025 46.11181451 -4 53 C-2.35 53.33 -0.7 53.66 1 54 C1 54.66 1 55.32 1 56 C-5.03554548 56.69260358 -10.92406438 57.11251733 -17 57 C-17.495 55.515 -17.495 55.515 -18 54 C-16.39125 53.505 -16.39125 53.505 -14.75 53 C-10.02224674 50.96851953 -8.91893796 47.54928282 -7 43 C-5.91489735 40.1889337 -4.9517429 37.34938459 -4.01953125 34.484375 C-3.76121017 33.70612366 -3.5028891 32.92787231 -3.23674011 32.1260376 C-2.4229883 29.66918974 -1.61779914 27.20962955 -0.8125 24.75 C-0.26159066 23.0857643 0.28983728 21.42170017 0.84179688 19.7578125 C1.36765551 18.16682128 1.89306222 16.5756806 2.41796875 14.984375 C2.6627446 14.24266052 2.90752045 13.50094604 3.15971375 12.73675537 C4.215335 9.51027274 5.20346318 6.29950418 6 3 C3.03 2.505 3.03 2.505 0 2 C0 1.34 0 0.68 0 0 Z M9 6 C7.48990237 10.24648022 5.99368057 14.49772018 4.5 18.75 C3.85611328 20.55984375 3.85611328 20.55984375 3.19921875 22.40625 C2.79316406 23.56640625 2.38710938 24.7265625 1.96875 25.921875 C1.59169922 26.99018555 1.21464844 28.05849609 0.82617188 29.15917969 C-0.18616805 32.14705913 -0.18616805 32.14705913 0 36 C6.6 36 13.2 36 20 36 C17.96422563 29.04704755 15.73483861 22.20205036 13.3125 15.375 C12.99216797 14.46621094 12.67183594 13.55742188 12.34179688 12.62109375 C11.56326686 10.41332207 10.78264756 8.20631463 10 6 C9.67 6 9.34 6 9 6 Z " fill="#F2A417" transform="translate(395,92)"/>
<path d="M0 0 C7.26 0 14.52 0 22 0 C22 0.66 22 1.32 22 2 C20.35 2.33 18.7 2.66 17 3 C19.65904509 12.02921313 22.67646067 20.86610996 25.9465332 29.68823242 C26.70045598 31.72245768 27.44923547 33.75852319 28.19726562 35.79492188 C30.37619263 41.99196198 30.37619263 41.99196198 33 48 C34.86531681 42.7211687 36.71621571 37.43758036 38.55419922 32.14916992 C39.18083743 30.35255903 39.81132559 28.55728597 40.44580078 26.76342773 C41.35956338 24.17778083 42.25915949 21.58756504 43.15625 18.99609375 C43.44060913 18.20101913 43.72496826 17.40594452 44.01794434 16.58677673 C45.641159 11.84529284 46.30322706 8.01199339 46 3 C43.525 2.505 43.525 2.505 41 2 C41 1.34 41 0.68 41 0 C47.6 0 54.2 0 61 0 C61 0.66 61 1.32 61 2 C59.30729167 2.5859375 57.61458333 3.171875 55.921875 3.7578125 C50.21577473 7.4459017 48.41445092 14.83335913 46.36328125 20.921875 C46.03837204 21.8630719 45.71346283 22.8042688 45.37870789 23.77398682 C44.34854176 26.76328172 43.33017786 29.75643328 42.3125 32.75 C41.28161076 35.75694038 40.24834263 38.76305175 39.2141571 41.76885986 C38.57286636 43.63548671 37.93396821 45.50293758 37.29768372 47.37127686 C36.86669624 48.63333954 36.86669624 48.63333954 36.42700195 49.92089844 C36.174814 50.66225037 35.92262604 51.40360229 35.66279602 52.16741943 C35 54 35 54 34 56 C32.02 56 30.04 56 28 56 C23.59362714 46.59325794 20.18380355 36.81606335 16.63623047 27.06274414 C15.79275062 24.74737038 14.94352274 22.43416399 14.09375 20.12109375 C13.84258423 19.42503525 13.59141846 18.72897675 13.3326416 18.01182556 C12.03123673 14.47686045 10.62086239 11.00648868 9.04101562 7.58618164 C8.74118774 6.93436417 8.44135986 6.28254669 8.13244629 5.61097717 C6.70477241 3.58001989 5.61271002 3.17483029 3.25 2.5 C2.1775 2.335 1.105 2.17 0 2 C0 1.34 0 0.68 0 0 Z " fill="#F6B33E" transform="translate(312,92)"/>
<path d="M0 0 C6.93 0.33 13.86 0.66 21 1 C21 1.66 21 2.32 21 3 C19.02 3.33 17.04 3.66 15 4 C13.89115518 11.79711515 13.84710035 19.5362876 13.86962891 27.39355469 C13.87500487 29.62702163 13.86964857 31.86028902 13.86328125 34.09375 C13.86394186 35.5338546 13.86522266 36.97395909 13.8671875 38.4140625 C13.86831543 39.7026416 13.86944336 40.9912207 13.87060547 42.31884766 C13.70615411 48.58752217 13.70615411 48.58752217 16 54 C22.07407394 53.95860938 27.91368346 53.56042158 33 50 C34.73490246 47.41556677 34.73490246 47.41556677 36 45 C36.66 45 37.32 45 38 45 C38 48.96 38 52.92 38 57 C29.55018555 58.09896431 21.3767976 57.92939305 12.875 57.5625 C11.52346234 57.50913275 10.17189971 57.45639406 8.8203125 57.40429688 C5.54657675 57.27568583 2.27323147 57.14077385 -1 57 C-1 56.34 -1 55.68 -1 55 C-0.030625 54.731875 0.93875 54.46375 1.9375 54.1875 C3.4534375 53.5996875 3.4534375 53.5996875 5 53 C5.90750284 50.27749147 6.13058719 48.66811907 6.14526367 45.86743164 C6.15164352 45.03969742 6.15802338 44.2119632 6.16459656 43.35914612 C6.16570938 42.46847946 6.1668222 41.57781281 6.16796875 40.66015625 C6.17129715 39.7416539 6.17462555 38.82315155 6.17805481 37.8768158 C6.18311728 35.93423971 6.18546334 33.99165494 6.18530273 32.04907227 C6.18748897 29.07749102 6.20565116 26.10628117 6.22460938 23.13476562 C6.22754348 21.2473971 6.22952816 19.36002682 6.23046875 17.47265625 C6.23765427 16.58401382 6.24483978 15.6953714 6.25224304 14.77980042 C6.24916641 13.94891403 6.24608978 13.11802765 6.24291992 12.26196289 C6.24434494 11.53376846 6.24576996 10.80557404 6.24723816 10.05531311 C5.9557467 7.63211832 5.3216925 6.04832233 4 4 C1.44480079 3.18828772 1.44480079 3.18828772 -1 3 C-0.67 2.01 -0.34 1.02 0 0 Z " fill="#F7A515" transform="translate(105,91)"/>
<path d="M0 0 C7.92 0.33 15.84 0.66 24 1 C24 1.66 24 2.32 24 3 C23.030625 3.2475 22.06125 3.495 21.0625 3.75 C20.051875 4.1625 19.04125 4.575 18 5 C16.98523473 7.70446733 16.87019132 10.28607929 16.85473633 13.15429688 C16.84835648 13.96193481 16.84197662 14.76957275 16.83540344 15.60168457 C16.83429062 16.46531616 16.8331778 17.32894775 16.83203125 18.21875 C16.82870285 19.11364136 16.82537445 20.00853271 16.82194519 20.93054199 C16.8168892 22.82006314 16.81453645 24.70959319 16.81469727 26.59912109 C16.81250802 29.48940696 16.79433078 32.37931273 16.77539062 35.26953125 C16.77245699 37.10676953 16.77047199 38.94400962 16.76953125 40.78125 C16.76234573 41.64488159 16.75516022 42.50851318 16.74775696 43.39831543 C16.75083359 44.20595337 16.75391022 45.01359131 16.75708008 45.84570312 C16.75565506 46.55311646 16.75423004 47.26052979 16.75276184 47.98937988 C17.04775414 50.38835201 17.69465714 51.96937035 19 54 C21.55519921 54.81171228 21.55519921 54.81171228 24 55 C24 55.66 24 56.32 24 57 C16.64479068 57.63661781 9.38395674 58.12515181 2 58 C2 57.01 2 56.02 2 55 C3.98 54.34 5.96 53.68 8 53 C9.0089452 45.01002736 9.15088641 37.10886054 9.125 29.0625 C9.12886719 27.86431641 9.13273437 26.66613281 9.13671875 25.43164062 C9.12887151 18.23179702 8.80229445 11.155772 8 4 C7.05125 4.020625 6.1025 4.04125 5.125 4.0625 C2 4 2 4 0 3 C0 2.01 0 1.02 0 0 Z " fill="#F3B245" transform="translate(441,91)"/>
<path d="M0 0 C7.26 0 14.52 0 22 0 C22 0.66 22 1.32 22 2 C20.02 2.33 18.04 2.66 16 3 C16.32274902 3.96711914 16.64549805 4.93423828 16.97802734 5.93066406 C18.19097651 9.57322578 19.39204477 13.21961875 20.58984375 16.8671875 C21.10654567 18.43528786 21.62632131 20.0023793 22.14941406 21.56835938 C24.94523536 29.9451113 27.51755227 37.97318327 28.46728516 46.80371094 C28.82824695 49.37505768 28.82824695 49.37505768 32 51 C32.1875 53.625 32.1875 53.625 32 56 C30.02 56 28.04 56 26 56 C21.92407661 46.42390471 18.70834849 36.53847073 15.375 26.6875 C14.4962064 24.09525181 13.61662282 21.5032783 12.73550415 18.91181946 C12.19089214 17.30960304 11.64766595 15.70691468 11.10604858 14.10368347 C9.83418554 10.35749837 8.51808348 6.6558021 7 3 C4.69 2.67 2.38 2.34 0 2 C0 1.34 0 0.68 0 0 Z " fill="#F7BA4B" transform="translate(220,92)"/>
<path d="M0 0 C4.62 0 9.24 0 14 0 C14.99 1.98 15.98 3.96 17 6 C16.67 6.66 16.34 7.32 16 8 C15.4121875 6.7934375 15.4121875 6.7934375 14.8125 5.5625 C13.23051809 2.76935262 13.23051809 2.76935262 10.3125 2.1875 C9.549375 2.125625 8.78625 2.06375 8 2 C8.20359131 3.01908447 8.40718262 4.03816895 8.61694336 5.08813477 C9.02801871 9.28613367 8.50824851 11.64076796 7.12890625 15.58984375 C6.71962891 16.78544922 6.31035156 17.98105469 5.88867188 19.21289062 C5.2322168 21.05657227 5.2322168 21.05657227 4.5625 22.9375 C4.12295888 24.20589935 3.68479442 25.47477665 3.24804688 26.74414062 C2.17888423 29.83413815 1.09123864 32.91772946 0 36 C6.6 36 13.2 36 20 36 C20.495 35.01 20.495 35.01 21 34 C21 34.99 21 35.98 21 37 C20.30849854 36.99476318 19.61699707 36.98952637 18.90454102 36.98413086 C15.79053648 36.963425 12.67654639 36.95036037 9.5625 36.9375 C8.47388672 36.92912109 7.38527344 36.92074219 6.26367188 36.91210938 C4.71196289 36.90727539 4.71196289 36.90727539 3.12890625 36.90234375 C2.17056885 36.89710693 1.21223145 36.89187012 0.22485352 36.88647461 C-1.97285339 36.7494687 -1.97285339 36.7494687 -3 38 C5.25 38 13.5 38 22 38 C21.505 38.99 21.505 38.99 21 40 C13.41 39.67 5.82 39.34 -2 39 C-3.82715025 46.11181451 -3.82715025 46.11181451 -4 53 C-2.35 53.33 -0.7 53.66 1 54 C1 54.66 1 55.32 1 56 C-5.03554548 56.69260358 -10.92406438 57.11251733 -17 57 C-17.495 55.515 -17.495 55.515 -18 54 C-16.39125 53.505 -16.39125 53.505 -14.75 53 C-10.02224674 50.96851953 -8.91893796 47.54928282 -7 43 C-5.91489735 40.1889337 -4.9517429 37.34938459 -4.01953125 34.484375 C-3.76121017 33.70612366 -3.5028891 32.92787231 -3.23674011 32.1260376 C-2.4229883 29.66918974 -1.61779914 27.20962955 -0.8125 24.75 C-0.26159066 23.0857643 0.28983728 21.42170017 0.84179688 19.7578125 C1.36765551 18.16682128 1.89306222 16.5756806 2.41796875 14.984375 C2.6627446 14.24266052 2.90752045 13.50094604 3.15971375 12.73675537 C4.215335 9.51027274 5.20346318 6.29950418 6 3 C3.03 2.505 3.03 2.505 0 2 C0 1.34 0 0.68 0 0 Z " fill="#F3C772" transform="translate(395,92)"/>
<path d="M0 0 C-0.67289996 3.07010609 -1.72882455 5.75550835 -3 8.625 C-7.2148557 19.18512936 -5.83649411 29.90680112 -5 41 C-5.99 41 -6.98 41 -8 41 C-8.39832031 40.04287109 -8.39832031 40.04287109 -8.8046875 39.06640625 C-9.15789062 38.24011719 -9.51109375 37.41382813 -9.875 36.5625 C-10.22304687 35.73878906 -10.57109375 34.91507813 -10.9296875 34.06640625 C-11.8244937 31.84253285 -11.8244937 31.84253285 -14 31 C-14.61366017 19.24499851 -14.38143532 11.06313386 -7 1.375 C-4.50830262 -0.33804195 -2.96272629 -0.32919181 0 0 Z " fill="#F7AB25" transform="translate(168,97)"/>
<path d="M0 0 C6.6 0.33 13.2 0.66 20 1 C20 1.66 20 2.32 20 3 C18.3603125 3.37125 18.3603125 3.37125 16.6875 3.75 C12.66547328 5.11339889 12.10112982 5.51908273 10 9 C9.07584912 11.35972678 8.2475413 13.6740988 7.4765625 16.08203125 C7.24850922 16.77326584 7.02045593 17.46450043 6.78549194 18.17668152 C6.05821585 20.38636259 5.34139342 22.59926971 4.625 24.8125 C4.15174334 26.25739147 3.67779086 27.70205523 3.203125 29.14648438 C2.26380575 32.00751347 1.32827771 34.86973952 0.39550781 37.73291016 C-1.70362149 44.16613711 -3.85218566 50.58289259 -6 57 C-8.97 57.495 -8.97 57.495 -12 58 C-12.33 56.68 -12.66 55.36 -13 54 C-12.67 54.66 -12.34 55.32 -12 56 C-10.68 56 -9.36 56 -8 56 C-8.33 53.03 -8.66 50.06 -9 47 C-8.34 47.33 -7.68 47.66 -7 48 C-5.44495308 43.00329925 -3.89693551 38.00449376 -2.35522461 33.00366211 C-1.8304314 31.30483198 -1.30376491 29.60657929 -0.77514648 27.90893555 C-0.01305771 25.46033929 0.74213795 23.00970473 1.49609375 20.55859375 C1.73154404 19.80726669 1.96699432 19.05593964 2.20957947 18.28184509 C3.56344652 13.85273876 4.46680383 9.60246441 5 5 C3.35 4.34 1.7 3.68 0 3 C0 2.01 0 1.02 0 0 Z " fill="#F1C166" transform="translate(285,91)"/>
<path d="M0 0 C3.14844538 1.57422269 3.50583845 4.72415976 4.56640625 7.89453125 C4.80536118 8.5971257 5.0443161 9.29972015 5.29051208 10.02360535 C5.79615074 11.51954304 6.29774723 13.01685205 6.7956543 14.51538086 C7.54841579 16.77031014 8.32307037 19.01683941 9.09960938 21.26367188 C11.89814569 29.53065201 13.87962609 37.18287776 14 46 C12.68 46 11.36 46 10 46 C10 45.34 10 44.68 10 44 C9.34 44 8.68 44 8 44 C4.37830495 34.03203198 1.04214249 24.74633553 1 14 C0.01 14 -0.98 14 -2 14 C-2 12.02 -2 10.04 -2 8 C-1.34 8 -0.68 8 0 8 C0 5.36 0 2.72 0 0 Z " fill="#F5B643" transform="translate(263,101)"/>
<path d="M0 0 C6.6 0 13.2 0 20 0 C20 0.66 20 1.32 20 2 C18.30729167 2.5859375 16.61458333 3.171875 14.921875 3.7578125 C9.21577473 7.4459017 7.41445092 14.83335913 5.36328125 20.921875 C5.03837204 21.8630719 4.71346283 22.8042688 4.37870789 23.77398682 C3.34854176 26.76328172 2.33017786 29.75643328 1.3125 32.75 C0.28161076 35.75694038 -0.75165737 38.76305175 -1.7858429 41.76885986 C-2.42713364 43.63548671 -3.06603179 45.50293758 -3.70231628 47.37127686 C-3.98964127 48.21265198 -4.27696625 49.0540271 -4.57299805 49.92089844 C-4.825186 50.66225037 -5.07737396 51.40360229 -5.33720398 52.16741943 C-6 54 -6 54 -7 56 C-8.98 56 -10.96 56 -13 56 C-13 55.67 -13 55.34 -13 55 C-11.35 55 -9.7 55 -8 55 C-8.350625 54.2575 -8.70125 53.515 -9.0625 52.75 C-10.04509293 49.8677274 -10.0326802 48.78823655 -9 46 C-8.67 46.66 -8.34 47.32 -8 48 C-6.13468319 42.7211687 -4.28378429 37.43758036 -2.44580078 32.14916992 C-1.81916257 30.35255903 -1.18867441 28.55728597 -0.55419922 26.76342773 C0.35956338 24.17778083 1.25915949 21.58756504 2.15625 18.99609375 C2.5827887 17.80348183 2.5827887 17.80348183 3.01794434 16.58677673 C4.641159 11.84529284 5.30322706 8.01199339 5 3 C2.525 2.505 2.525 2.505 0 2 C0 1.34 0 0.68 0 0 Z " fill="#EEC572" transform="translate(353,92)"/>
<path d="M0 0 C2.1875 -0.4375 2.1875 -0.4375 5 0 C13.30187438 8.92451496 15.53849443 21.30795544 17 33 C17.31761242 34.66973388 17.64553867 36.33769857 18 38 C17.01 38.495 17.01 38.495 16 39 C15.81824219 38.36191406 15.63648438 37.72382813 15.44921875 37.06640625 C15.19785156 36.24011719 14.94648438 35.41382813 14.6875 34.5625 C14.44386719 33.73878906 14.20023437 32.91507813 13.94921875 32.06640625 C13.63597656 31.38449219 13.32273437 30.70257813 13 30 C12.01 29.67 11.02 29.34 10 29 C8.92504883 26.91455078 8.92504883 26.91455078 7.95703125 24.1953125 C7.60576172 23.21949219 7.25449219 22.24367188 6.89257812 21.23828125 C6.53615234 20.21089844 6.17972656 19.18351562 5.8125 18.125 C5.44447266 17.10535156 5.07644531 16.08570312 4.69726562 15.03515625 C2 7.43877551 2 7.43877551 2 4 C1.34 4 0.68 4 0 4 C0 2.68 0 1.36 0 0 Z " fill="#F8A818" transform="translate(403,94)"/>
<path d="M0 0 C1 1 1 1 1.09765625 3.50390625 C1.08605469 4.51324219 1.07445312 5.52257812 1.0625 6.5625 C1.05347656 7.57441406 1.04445312 8.58632812 1.03515625 9.62890625 C1.02355469 10.41136719 1.01195312 11.19382812 1 12 C0.34 12 -0.32 12 -1 12 C-1.34611328 11.18595703 -1.34611328 11.18595703 -1.69921875 10.35546875 C-3.76438061 5.82517297 -5.21835336 3.03219982 -10 1 C-15.72571694 -0.67148258 -21.07328105 -0.61012767 -26.75 1.1875 C-30.13558986 3.07561742 -32.42917304 5.11755765 -35 8 C-35 7.01 -35 6.02 -35 5 C-38.76430913 6.25476971 -39.05044108 7.69422618 -41 11 C-41.66 11 -42.32 11 -43 11 C-41.63661811 5.37604971 -37.69850418 2.02792492 -33 -1 C-22.20826436 -5.46869053 -10.60817213 -4.63635076 0 0 Z " fill="#F1C474" transform="translate(81,95)"/>
<path d="M0 0 C6.27 0.33 12.54 0.66 19 1 C18.67 1.66 18.34 2.32 18 3 C17.34 3.144375 16.68 3.28875 16 3.4375 C15.34 3.623125 14.68 3.80875 14 4 C13.13580777 6.59257669 12.82419068 8.34037707 12.68359375 11.01171875 C12.64169922 11.76904297 12.59980469 12.52636719 12.55664062 13.30664062 C12.51732422 14.09232422 12.47800781 14.87800781 12.4375 15.6875 C12.39431641 16.48478516 12.35113281 17.28207031 12.30664062 18.10351562 C12.20072632 20.06881447 12.09987449 22.03438496 12 24 C9.53721199 25.231394 7.7204945 25.07159196 5 25 C5.01160156 24.07058594 5.02320312 23.14117187 5.03515625 22.18359375 C5.11753537 13.04290683 5.11753537 13.04290683 4 4 C1.525 3.01 1.525 3.01 -1 2 C-0.67 1.34 -0.34 0.68 0 0 Z " fill="#FAA107" transform="translate(72,119)"/>
<path d="M0 0 C0.33 0 0.66 0 1 0 C1.99 3.63 2.98 7.26 4 11 C4.99 11 5.98 11 7 11 C6.67 8.03 6.34 5.06 6 2 C8 5 8 5 9.3125 7.875 C11.55723937 12.03192476 14.12469139 14.87481483 18.1875 17.3125 C23.79431459 18.68305468 29.05577462 18.77769015 34.4375 16.625 C36.30651854 15.43976873 38.15855343 14.22763105 40 13 C40 13.99 40 14.98 40 16 C40.66 16 41.32 16 42 16 C41.505 17.485 41.505 17.485 41 19 C33.80308749 22.59845625 25.06114784 23.30968299 17.328125 21.30859375 C8.99372777 18.29053172 3.48699392 13.8730765 -0.46875 5.9296875 C-1.10826447 3.60674522 -0.76170685 2.25505318 0 0 Z " fill="#F1C26B" transform="translate(156,127)"/>
<path d="M0 0 C-0.33 0.66 -0.66 1.32 -1 2 C-1.99 1.67 -2.98 1.34 -4 1 C-4 1.99 -4 2.98 -4 4 C-3.34 4 -2.68 4 -2 4 C-0.71682108 7.84953676 -0.93356363 10.94738135 -1 15 C-1.33 15 -1.66 15 -2 15 C-2.17015625 14.41992188 -2.3403125 13.83984375 -2.515625 13.2421875 C-4.54151653 6.71192011 -6.84422269 0.65499278 -13 -3 C-20.21144615 -5.17102484 -26.38131497 -4.37688012 -33 -1 C-33.99 -0.505 -33.99 -0.505 -35 0 C-35 -0.66 -35 -1.32 -35 -2 C-36.32 -2.33 -37.64 -2.66 -39 -3 C-25.47583079 -10.21512749 -12.23325766 -9.8397942 0 0 Z " fill="#F2C374" transform="translate(203,99)"/>
<path d="M0 0 C0.33 0 0.66 0 1 0 C1 15.18 1 30.36 1 46 C10.24 46 19.48 46 29 46 C28.67 45.01 28.34 44.02 28 43 C27.175 43.33 26.35 43.66 25.5 44 C21.4126017 45.16782809 18.23076656 45.1458885 14 45 C14 44.67 14 44.34 14 44 C14.59167969 43.90203125 15.18335937 43.8040625 15.79296875 43.703125 C20.82440698 42.75100945 24.31578146 41.79935037 28 38 C28.33 37.01 28.66 36.02 29 35 C29.66 35 30.32 35 31 35 C31 38.96 31 42.92 31 47 C22.55018555 48.09896431 14.3767976 47.92939305 5.875 47.5625 C4.52346234 47.50913275 3.17189971 47.45639406 1.8203125 47.40429688 C-1.45342325 47.27568583 -4.72676853 47.14077385 -8 47 C-8 46.34 -8 45.68 -8 45 C-7.030625 44.731875 -6.06125 44.46375 -5.0625 44.1875 C-3.5465625 43.5996875 -3.5465625 43.5996875 -2 43 C-1.11434414 40.34303242 -0.8549738 38.71809917 -0.79467773 35.98754883 C-0.77473251 35.18694534 -0.75478729 34.38634186 -0.73423767 33.56147766 C-0.70916893 32.27227669 -0.70916893 32.27227669 -0.68359375 30.95703125 C-0.66281265 30.0734343 -0.64203156 29.18983734 -0.62062073 28.27946472 C-0.55524246 25.45722215 -0.49629472 22.63488665 -0.4375 19.8125 C-0.39430363 17.89907894 -0.35068898 15.98566727 -0.30664062 14.07226562 C-0.19957305 9.38160563 -0.09827248 4.69085217 0 0 Z " fill="#F7C976" transform="translate(112,101)"/>
<path d="M0 0 C0.33 0 0.66 0 1 0 C1 1.98 1 3.96 1 6 C1.99 6 2.98 6 4 6 C5.4783226 8.95664519 5.06032783 11.74229737 5 15 C3 12 3 12 2 9 C1.76812988 9.70608398 1.53625977 10.41216797 1.29736328 11.13964844 C0.2430709 14.34414933 -0.81591131 17.54708125 -1.875 20.75 C-2.23980469 21.86117187 -2.60460937 22.97234375 -2.98046875 24.1171875 C-3.33496094 25.18710938 -3.68945312 26.25703125 -4.0546875 27.359375 C-4.37937012 28.34389648 -4.70405273 29.32841797 -5.03857422 30.34277344 C-5.8823499 32.67483402 -6.83479229 34.81466881 -8 37 C-8 36.01 -8 35.02 -8 34 C-8.64453125 33.76539063 -9.2890625 33.53078125 -9.953125 33.2890625 C-12 32 -12 32 -12.609375 29.8359375 C-12.65578125 29.02382812 -12.7021875 28.21171875 -12.75 27.375 C-12.80671875 26.55773437 -12.8634375 25.74046875 -12.921875 24.8984375 C-12.94765625 24.27195313 -12.9734375 23.64546875 -13 23 C-11 26 -11 26 -9 29 C-6.03 19.43 -3.06 9.86 0 0 Z " fill="#F1C56F" transform="translate(260,109)"/>
<path d="M0 0 C3.80676103 5.71014155 4.48318625 11.70370628 5.33984375 18.390625 C5.77413076 21.333733 5.77413076 21.333733 9 23 C9.1875 25.625 9.1875 25.625 9 28 C7.02 28 5.04 28 3 28 C0.49289691 22.06084316 -1.60061654 16.29722557 -3 10 C-2.34 10 -1.68 10 -1 10 C-0.67 6.7 -0.34 3.4 0 0 Z " fill="#F2B74A" transform="translate(243,120)"/>
<path d="M0 0 C3.15140423 0.34069235 4.60781561 0.58076841 6.8125 2.9375 C8 5 8 5 8 7 C6.68 7 5.36 7 4 7 C4.16242188 7.85980469 4.32484375 8.71960938 4.4921875 9.60546875 C5.55107127 16.6836995 5.34146781 23.9716356 4.4375 31.0625 C3.76963107 34.72663573 3.76963107 34.72663573 4.625 37.07421875 C4.74875 37.70972656 4.8725 38.34523437 5 39 C2.5625 41.75 2.5625 41.75 0 44 C-0.99 43.67 -1.98 43.34 -3 43 C-2.38808288 39.40438462 -1.36604133 36.33471173 0.046875 32.98046875 C2.38743737 26.67724539 2.46198824 20.96974614 2.25 14.3125 C2.22292969 12.66991211 2.22292969 12.66991211 2.1953125 10.99414062 C2.14875049 8.32846538 2.08338317 5.6647336 2 3 C1.34 3 0.68 3 0 3 C0 2.01 0 1.02 0 0 Z " fill="#F8AB2E" transform="translate(199,100)"/>
<path d="M0 0 C7.92 0.33 15.84 0.66 24 1 C24 1.66 24 2.32 24 3 C22.576875 3.37125 22.576875 3.37125 21.125 3.75 C17.91306809 4.6857077 17.91306809 4.6857077 16.625 7.125 C16.315625 8.053125 16.315625 8.053125 16 9 C16 7.02 16 5.04 16 3 C14.02 3 12.04 3 10 3 C10.16153564 3.97163086 10.32307129 4.94326172 10.48950195 5.94433594 C11.10372452 10.26563447 11.16179474 14.53172069 11.16796875 18.890625 C11.17129715 19.71705505 11.17462555 20.54348511 11.17805481 21.3949585 C11.18308865 23.12951098 11.18546424 24.86407303 11.18530273 26.59863281 C11.18750499 29.2560186 11.20574059 31.91299912 11.22460938 34.5703125 C11.22754087 36.26041525 11.2295273 37.95051997 11.23046875 39.640625 C11.23765427 40.43438538 11.24483978 41.22814575 11.25224304 42.04595947 C11.23619346 45.89565359 11.18632391 47.72051414 9 51 C9.00523682 49.96705811 9.01047363 48.93411621 9.01586914 47.86987305 C9.03415521 43.98772062 9.04551709 40.1055719 9.05493164 36.22338867 C9.05991846 34.55248369 9.06671031 32.88158298 9.07543945 31.21069336 C9.12185731 22.08821877 9.12303748 13.07166129 8 4 C7.05125 4.020625 6.1025 4.04125 5.125 4.0625 C2 4 2 4 0 3 C0 2.01 0 1.02 0 0 Z " fill="#E8B355" transform="translate(441,91)"/>
<path d="M0 0 C1.32 0.33 2.64 0.66 4 1 C4 17.5 4 34 4 51 C2.02 51.495 2.02 51.495 0 52 C0.23771118 50.81059814 0.23771118 50.81059814 0.48022461 49.59716797 C1.11581527 45.19848655 1.23073508 40.88384823 1.31640625 36.4453125 C1.33718735 35.54376434 1.35796844 34.64221619 1.37937927 33.71334839 C1.4444458 30.8506386 1.50355914 27.98784181 1.5625 25.125 C1.60572607 23.17707456 1.64934164 21.22915771 1.69335938 19.28125 C1.80008289 14.52092111 1.90146964 9.76050524 2 5 C1.34 5 0.68 5 0 5 C0 3.35 0 1.7 0 0 Z " fill="#FDA102" transform="translate(451,94)"/>
<path d="M0 0 C0.33 0.99 0.66 1.98 1 3 C2.32 3 3.64 3 5 3 C5 3.66 5 4.32 5 5 C-6.59798386 9.01760225 -17.26482494 11.16821851 -29 6 C-29.33 5.34 -29.66 4.68 -30 4 C-29.34 3.67 -28.68 3.34 -28 3 C-27.67 2.34 -27.34 1.68 -27 1 C-26.2575 1.474375 -25.515 1.94875 -24.75 2.4375 C-19.43855943 5.45536396 -14.00308647 5.54917826 -8 5 C-4.598315 3.66362375 -2.56521154 2.56521154 0 0 Z " fill="#F0C36F" transform="translate(77,140)"/>
<path d="M0 0 C3.56159778 1.78079889 4.16498161 6.43838044 5.37524414 10.05541992 C7.05907007 15.4458455 7.41263527 19.4436346 6 25 C5.34 25.66 4.68 26.32 4 27 C2.32889958 24.03821227 1.67317248 21.62928808 1.375 18.25 C1.30023438 17.45078125 1.22546875 16.6515625 1.1484375 15.828125 C1.07496094 14.92320313 1.07496094 14.92320313 1 14 C0.01 14 -0.98 14 -2 14 C-2 12.02 -2 10.04 -2 8 C-1.34 8 -0.68 8 0 8 C0 5.36 0 2.72 0 0 Z " fill="#F6B137" transform="translate(263,101)"/>
<path d="M0 0 C2.35448165 2.55068845 2.98327924 3.71017358 3.1875 7.25 C3.125625 8.1575 3.06375 9.065 3 10 C3.66 10 4.32 10 5 10 C5.67667998 11.24460783 6.34094719 12.49596896 7 13.75 C7.37125 14.44609375 7.7425 15.1421875 8.125 15.859375 C9 18 9 18 9 22 C7.02 22 5.04 22 3 22 C1.80842459 19.61684918 1.99192817 18.32675806 2.125 15.6875 C2.19162055 11.52371556 1.32686635 9.49029953 -1 6 C-1.25 3.25 -1.25 3.25 -1 1 C-0.67 0.67 -0.34 0.34 0 0 Z " fill="#F7AC27" transform="translate(336,125)"/>
<path d="M0 0 C0.33 0 0.66 0 1 0 C1.99 3.63 2.98 7.26 4 11 C4.99 11 5.98 11 7 11 C6.67 8.03 6.34 5.06 6 2 C8 5 8 5 9.3125 7.75 C11.24470545 11.47128458 13.50758886 14.63187683 16 18 C14.1875 18.6015625 14.1875 18.6015625 12 19 C5.59203584 15.52901941 1.71713719 10.72133937 -1 4 C-0.6875 1.625 -0.6875 1.625 0 0 Z " fill="#F5C465" transform="translate(156,127)"/>
<path d="M0 0 C3.3 0 6.6 0 10 0 C10 3.63 10 7.26 10 11 C9.34 11 8.68 11 8 11 C8 11.66 8 12.32 8 13 C7.34 13 6.68 13 6 13 C5.52014033 11.72942818 5.0411407 10.45853152 4.5625 9.1875 C4.16224609 8.12595703 4.16224609 8.12595703 3.75390625 7.04296875 C3.13774814 5.37327604 2.56280765 3.68842296 2 2 C1.34 2 0.68 2 0 2 C0 1.34 0 0.68 0 0 Z " fill="#F9A619" transform="translate(225,93)"/>
<path d="M0 0 C0.66 0 1.32 0 2 0 C3.65497356 3.30994713 3.10084335 6.99123 3.0625 10.625 C3.05798828 11.42679688 3.05347656 12.22859375 3.04882812 13.0546875 C3.03703168 15.03649006 3.01909605 17.01825433 3 19 C3.66 18.67 4.32 18.34 5 18 C5.42344461 15.31818413 5.74962668 12.69846798 6 10 C6.25037332 7.30153202 6.57655539 4.68181587 7 2 C7.66 1.67 8.32 1.34 9 1 C8.67 7.6 8.34 14.2 8 21 C5.53721199 22.231394 3.7204945 22.07159196 1 22 C1.01160156 21.0821875 1.02320312 20.164375 1.03515625 19.21875 C1.08301493 12.70996973 1.02900697 6.43129355 0 0 Z " fill="#F5B445" transform="translate(76,122)"/>
<path d="M0 0 C5.28798182 0.41474367 8.11690718 1.35224614 12 5 C11.67 5.66 11.34 6.32 11 7 C10.01 6.67 9.02 6.34 8 6 C8 6.99 8 7.98 8 9 C8.66 9 9.32 9 10 9 C11.28317892 12.84953676 11.06643637 15.94738135 11 20 C10.67 20 10.34 20 10 20 C9.82984375 19.41992188 9.6596875 18.83984375 9.484375 18.2421875 C7.92728533 13.22305802 6.11986732 9.28981756 3 5 C1.98940479 3.33973644 0.98546999 1.67529898 0 0 Z " fill="#F5BF5A" transform="translate(191,94)"/>
<path d="M0 0 C4.62 0 9.24 0 14 0 C14.99 1.98 15.98 3.96 17 6 C16.67 6.66 16.34 7.32 16 8 C15.608125 7.195625 15.21625 6.39125 14.8125 5.5625 C13.23051809 2.76935262 13.23051809 2.76935262 10.3125 2.1875 C9.1678125 2.0946875 9.1678125 2.0946875 8 2 C8.3403125 3.5778125 8.3403125 3.5778125 8.6875 5.1875 C9.03180444 9.38801417 8.48772258 10.7162062 6 14 C4.64984141 9.94952424 5.37915002 7.2079832 6 3 C3.03 2.505 3.03 2.505 0 2 C0 1.34 0 0.68 0 0 Z " fill="#EFB449" transform="translate(395,92)"/>
<path d="M0 0 C6.93 0.33 13.86 0.66 21 1 C21 1.66 21 2.32 21 3 C19.02 3.33 17.04 3.66 15 4 C14.67 6.97 14.34 9.94 14 13 C13.67 13 13.34 13 13 13 C13 9.7 13 6.4 13 3 C11.02 3 9.04 3 7 3 C7 4.65 7 6.3 7 8 C6.4121875 7.0409375 6.4121875 7.0409375 5.8125 6.0625 C3.61527704 3.56221181 2.24208567 3.35049575 -1 3 C-0.67 2.01 -0.34 1.02 0 0 Z " fill="#F0C265" transform="translate(105,91)"/>
<path d="M0 0 C0.33 1.32 0.66 2.64 1 4 C1.99 4 2.98 4 4 4 C4.13277344 4.73605469 4.26554687 5.47210938 4.40234375 6.23046875 C4.57894531 7.20628906 4.75554687 8.18210937 4.9375 9.1875 C5.19853516 10.63189453 5.19853516 10.63189453 5.46484375 12.10546875 C5.9523735 14.74239972 6.46671105 17.3719905 7 20 C6.34 20.33 5.68 20.66 5 21 C4.70996094 20.04287109 4.70996094 20.04287109 4.4140625 19.06640625 C4.15367187 18.24011719 3.89328125 17.41382813 3.625 16.5625 C3.24214844 15.32693359 3.24214844 15.32693359 2.8515625 14.06640625 C2.19117773 11.82201984 2.19117773 11.82201984 0 11 C-0.44921875 8.75 -0.44921875 8.75 -0.6875 6 C-0.77386719 5.0925 -0.86023438 4.185 -0.94921875 3.25 C-0.96597656 2.5075 -0.98273438 1.765 -1 1 C-0.67 0.67 -0.34 0.34 0 0 Z " fill="#FBA10A" transform="translate(414,112)"/>
<path d="M0 0 C1.32 0.33 2.64 0.66 4 1 C4.12117187 1.69867188 4.24234375 2.39734375 4.3671875 3.1171875 C4.53476563 4.02726563 4.70234375 4.93734375 4.875 5.875 C5.03742188 6.77992188 5.19984375 7.68484375 5.3671875 8.6171875 C5.83044703 11.16505988 5.83044703 11.16505988 8 13 C8 14.32 8 15.64 8 17 C6.68 17 5.36 17 4 17 C4 15.35 4 13.7 4 12 C3.34 12 2.68 12 2 12 C0.40861915 7.82262526 -0.21278058 4.46839215 0 0 Z " fill="#F9A10C" transform="translate(243,130)"/>
<path d="M0 0 C6.625 -0.25 6.625 -0.25 10 2 C10.29296875 4.6015625 10.29296875 4.6015625 10.1875 7.625 C10.16042969 8.62789062 10.13335937 9.63078125 10.10546875 10.6640625 C10.07066406 11.43492188 10.03585938 12.20578125 10 13 C9.34 13 8.68 13 8 13 C7.63648437 12.20335938 7.63648437 12.20335938 7.265625 11.390625 C5.29310278 7.23315508 3.48314433 4.1099503 0 1 C0 0.67 0 0.34 0 0 Z " fill="#F2B851" transform="translate(72,94)"/>
<path d="M0 0 C2.475 0.99 2.475 0.99 5 2 C5.0270043 3.45823212 5.04639787 4.91660675 5.0625 6.375 C5.07410156 7.18710938 5.08570313 7.99921875 5.09765625 8.8359375 C5 11 5 11 4 13 C3.01 13 2.02 13 1 13 C-0.58593284 8.8369263 -1.31121486 5.46074638 -1 1 C-0.67 0.67 -0.34 0.34 0 0 Z " fill="#F7AC2D" transform="translate(238,117)"/>
<path d="M0 0 C3 1 3 1 4.625 2.9375 C6.54083389 7.20458457 6.73916913 11.36800351 7 16 C5.68 16 4.36 16 3 16 C1.29915181 10.67067568 0.47986031 5.56890517 0 0 Z " fill="#F9A20B" transform="translate(270,131)"/>
<path d="M0 0 C0.33 0 0.66 0 1 0 C1.06058594 0.69867188 1.12117187 1.39734375 1.18359375 2.1171875 C1.26738281 3.02726563 1.35117188 3.93734375 1.4375 4.875 C1.51871094 5.77992188 1.59992188 6.68484375 1.68359375 7.6171875 C1.86989285 10.01110861 1.86989285 10.01110861 3 12 C1.35 13.65 -0.3 15.3 -2 17 C-2.99 16.67 -3.98 16.34 -5 16 C-4.34309381 12.21760329 -3.279869 8.78158474 -1.9375 5.1875 C-1.57527344 4.21167969 -1.21304688 3.23585937 -0.83984375 2.23046875 C-0.42412109 1.12638672 -0.42412109 1.12638672 0 0 Z " fill="#F6B84A" transform="translate(201,127)"/>
<path d="M0 0 C0.99 0.33 1.98 0.66 3 1 C2.67515625 1.87398438 2.67515625 1.87398438 2.34375 2.765625 C-1.3583542 13.66626515 -0.58230214 23.16780067 3 34 C2.01 34 1.02 34 0 34 C0 32.35 0 30.7 0 29 C-0.66 29 -1.32 29 -2 29 C-2 21.08 -2 13.16 -2 5 C-1.34 5 -0.68 5 0 5 C0 3.35 0 1.7 0 0 Z " fill="#F5BA55" transform="translate(43,103)"/>
<path d="M0 0 C0 0.66 0 1.32 0 2 C-1.47695491 3.28430862 -2.95806138 4.56580708 -4.4921875 5.78125 C-6.13813095 7.06784671 -6.13813095 7.06784671 -8 9 C-8 8.01 -8 7.02 -8 6 C-11.76430913 7.25476971 -12.05044108 8.69422618 -14 12 C-14.66 12 -15.32 12 -16 12 C-14.26470491 4.84190776 -7.50036841 -1.31256447 0 0 Z " fill="#F1BE55" transform="translate(54,94)"/>
<path d="M0 0 C1.80030122 2.70045182 2.93377066 5.06677881 4.125 8.0625 C4.47820312 8.94035156 4.83140625 9.81820312 5.1953125 10.72265625 C6 13 6 13 6 15 C5.01 15 4.02 15 3 15 C2.67 14.01 2.34 13.02 2 12 C2 15.3 2 18.6 2 22 C0.09610151 19.14415227 -0.69462177 17.0688238 -1.625 13.8125 C-2.01558594 12.46091797 -2.01558594 12.46091797 -2.4140625 11.08203125 C-2.60742188 10.39496094 -2.80078125 9.70789063 -3 9 C-2.34 8.67 -1.68 8.34 -1 8 C-1 8.99 -1 9.98 -1 11 C-0.34 11 0.32 11 1 11 C0.67 7.37 0.34 3.74 0 0 Z " fill="#F5BC55" transform="translate(412,101)"/>
<path d="M0 0 C0.33 0 0.66 0 1 0 C1 15.18 1 30.36 1 46 C-0.32 46 -1.64 46 -3 46 C-2.67854004 45.20255371 -2.35708008 44.40510742 -2.02587891 43.58349609 C-0.76949826 39.1948347 -0.6480817 35.20459822 -0.5859375 30.6640625 C-0.56657135 29.78471039 -0.5472052 28.90535828 -0.5272522 27.99935913 C-0.46777185 25.20800282 -0.4211979 22.41660457 -0.375 19.625 C-0.33679115 17.72524306 -0.29773774 15.8255029 -0.2578125 13.92578125 C-0.16209643 9.2839915 -0.0779496 4.64212071 0 0 Z " fill="#F7BE58" transform="translate(112,101)"/>
<path d="M0 0 C0.9821994 3.27626375 1.11580914 6.22788119 1.09765625 9.640625 C1.09282227 11.24550781 1.09282227 11.24550781 1.08789062 12.8828125 C1.07951172 13.99398437 1.07113281 15.10515625 1.0625 16.25 C1.05798828 17.37664062 1.05347656 18.50328125 1.04882812 19.6640625 C1.03705397 22.44276217 1.0206084 25.22135409 1 28 C-2.70631119 24.29368881 -2.85291138 18.61797481 -3.3125 13.5625 C-2.89494518 8.80237503 -1.52507848 4.51169051 0 0 Z " fill="#F3BB57" transform="translate(37,106)"/>
<path d="M0 0 C7.92 0.33 15.84 0.66 24 1 C24 1.66 24 2.32 24 3 C22.576875 3.37125 22.576875 3.37125 21.125 3.75 C17.91306809 4.6857077 17.91306809 4.6857077 16.625 7.125 C16.315625 8.053125 16.315625 8.053125 16 9 C15.67 7.02 15.34 5.04 15 3 C12.36 3 9.72 3 7 3 C7 3.33 7 3.66 7 4 C4.69 3.67 2.38 3.34 0 3 C0 2.01 0 1.02 0 0 Z " fill="#F5CA79" transform="translate(441,91)"/>
<path d="M0 0 C0.99 0.33 1.98 0.66 3 1 C3.94921875 3.328125 3.94921875 3.328125 4.6875 6.25 C4.93886719 7.20390625 5.19023437 8.1578125 5.44921875 9.140625 C5.9703456 11.84604951 6.10521678 14.25434317 6 17 C4 14 4 14 3 7 C-5.25 7 -13.5 7 -22 7 C-21.67 6.01 -21.34 5.02 -21 4 C-21 4.66 -21 5.32 -21 6 C-13.41 6 -5.82 6 2 6 C2 5.01 2 4.02 2 3 C1.34 3 0.68 3 0 3 C0 2.01 0 1.02 0 0 Z " fill="#EBAD43" transform="translate(414,123)"/>
<path d="M0 0 C2.475 0.495 2.475 0.495 5 1 C5.33 2.32 5.66 3.64 6 5 C6.66 5 7.32 5 8 5 C8 6.98 8 8.96 8 11 C8.66 11 9.32 11 10 11 C11.59138085 15.17737474 12.21278058 18.53160785 12 23 C9.91013426 20.91013426 9.37086883 19.69820452 8.37890625 16.97265625 C8.08306641 16.18052734 7.78722656 15.38839844 7.48242188 14.57226562 C6.87086496 12.90379293 6.26147657 11.23452373 5.65429688 9.56445312 C5.35716797 8.77103516 5.06003906 7.97761719 4.75390625 7.16015625 C4.35667358 6.07166382 4.35667358 6.07166382 3.95141602 4.96118164 C2.92271114 2.84068222 1.74888749 1.55971897 0 0 Z " fill="#F1B950" transform="translate(317,94)"/>
<path d="M0 0 C3.64025894 5.4603884 3.53557284 11.60082791 3 18 C1.08525755 26.91474245 1.08525755 26.91474245 -2 30 C-2 28.02 -2 26.04 -2 24 C-1.34 24 -0.68 24 0 24 C0 16.08 0 8.16 0 0 Z " fill="#F3C66A" transform="translate(207,107)"/>
<path d="M0 0 C6.6 0.33 13.2 0.66 20 1 C20 1.66 20 2.32 20 3 C18.88625 3.309375 17.7725 3.61875 16.625 3.9375 C13.2054845 4.82326483 13.2054845 4.82326483 11 6 C11 4.68 11 3.36 11 2 C8.52733235 2.34444881 8.52733235 2.34444881 6 3 C5.67 3.66 5.34 4.32 5 5 C2.525 4.01 2.525 4.01 0 3 C0 2.01 0 1.02 0 0 Z " fill="#F4CD81" transform="translate(285,91)"/>
<path d="M0 0 C0.33 0 0.66 0 1 0 C1 1.98 1 3.96 1 6 C1.99 6 2.98 6 4 6 C5.4783226 8.95664519 5.06032783 11.74229737 5 15 C3 12 3 12 2 9 C1.34 10.65 0.68 12.3 0 14 C-0.99 14 -1.98 14 -3 14 C-2.40380045 9.13103697 -1.43023178 4.67209049 0 0 Z " fill="#F4C973" transform="translate(260,109)"/>
<path d="M0 0 C6.6 0 13.2 0 20 0 C20 0.66 20 1.32 20 2 C18.88625 2.474375 17.7725 2.94875 16.625 3.4375 C14.73289006 4.25306463 12.84287291 5.07856355 11 6 C10.67 4.68 10.34 3.36 10 2 C6.7 2 3.4 2 0 2 C0 1.34 0 0.68 0 0 Z " fill="#F6CF8D" transform="translate(353,92)"/>
<path d="M0 0 C-0.70554068 3.66881155 -2.27735506 6.70450534 -4 10 C-4.33 10 -4.66 10 -5 10 C-5 8.35 -5 6.7 -5 5 C-6.65 5.66 -8.3 6.32 -10 7 C-7.6551217 1.76911763 -5.98347266 -0.48514643 0 0 Z " fill="#F6B747" transform="translate(168,97)"/>
<path d="M0 0 C2.31 0 4.62 0 7 0 C6.54177532 3.46941546 6.10868317 6.67395049 5 10 C4.01 10.33 3.02 10.66 2 11 C2 7.7 2 4.4 2 1 C1.34 0.67 0.68 0.34 0 0 Z " fill="#EFAB33" transform="translate(289,93)"/>
<path d="M0 0 C7.26 0 14.52 0 22 0 C22 0.66 22 1.32 22 2 C20.35 2.66 18.7 3.32 17 4 C17 5.65 17 7.3 17 9 C16.34 8.34 15.68 7.68 15 7 C15.375 4.375 15.375 4.375 16 2 C14.22925083 1.97294271 12.45838289 1.95357805 10.6875 1.9375 C9.70136719 1.92589844 8.71523437 1.91429688 7.69921875 1.90234375 C4.90036151 1.87670138 4.90036151 1.87670138 2 3 C1.34 2.67 0.68 2.34 0 2 C0 1.34 0 0.68 0 0 Z " fill="#F6D28C" transform="translate(247,92)"/>
<path d="M0 0 C0.33 0 0.66 0 1 0 C1 1.65 1 3.3 1 5 C2.45823212 5.0270043 3.91660675 5.04639787 5.375 5.0625 C6.59316406 5.07990234 6.59316406 5.07990234 7.8359375 5.09765625 C10.04937142 5.14466334 10.04937142 5.14466334 12 4 C12.99 4.33 13.98 4.66 15 5 C15 5.66 15 6.32 15 7 C8.30386804 7.797837 1.74233419 8.12910853 -5 8 C-5 7.01 -5 6.02 -5 5 C-3.68 4.67 -2.36 4.34 -1 4 C-0.67 2.68 -0.34 1.36 0 0 Z " fill="#F5CE8B" transform="translate(420,141)"/>
<path d="M0 0 C0.33 0 0.66 0 1 0 C0.50523351 5.64033795 -0.41945622 9.94213419 -3 15 C-3.99 15.495 -3.99 15.495 -5 16 C-4.70887831 9.58076669 -3.54784971 5.37899794 0 0 Z " fill="#EDBB5E" transform="translate(287,116)"/>
<path d="M0 0 C2.66604583 1.33302292 2.99124788 2.18990481 4 5 C4.27321716 7.75949336 4.1804541 10.20296151 4 13 C3.34 13.66 2.68 14.32 2 15 C0.23575393 11.91076913 -0.36917568 9.34537815 -0.6875 5.8125 C-0.77386719 4.93207031 -0.86023438 4.05164063 -0.94921875 3.14453125 C-0.96597656 2.43683594 -0.98273438 1.72914062 -1 1 C-0.67 0.67 -0.34 0.34 0 0 Z " fill="#FBA10B" transform="translate(265,113)"/>
<path d="M0 0 C0.33 0 0.66 0 1 0 C2.31626692 3.61973402 3 6.09567131 3 10 C3.66 10 4.32 10 5 10 C5.33 13.96 5.66 17.92 6 22 C4.18367304 18.36734609 2.71935132 14.80535142 1.3125 11 C0.85488281 9.783125 0.39726562 8.56625 -0.07421875 7.3125 C-0.94299301 4.20397439 -1.2034842 2.91753745 0 0 Z " fill="#F4C25F" transform="translate(266,123)"/>
<path d="M0 0 C3.96 0 7.92 0 12 0 C11.01 0.495 11.01 0.495 10 1 C10 3.64 10 6.28 10 9 C9.34 8.67 8.68 8.34 8 8 C8 7.34 8 6.68 8 6 C7.34 6 6.68 6 6 6 C5.7525 5.38125 5.505 4.7625 5.25 4.125 C3.98960746 1.54131114 3.98960746 1.54131114 0 0 Z " fill="#F6A20E" transform="translate(317,93)"/>
<path d="M0 0 C0.33 0 0.66 0 1 0 C1 3.3 1 6.6 1 10 C0.34 9.01 -0.32 8.02 -1 7 C-1.825 7.33 -2.65 7.66 -3.5 8 C-7.5873983 9.16782809 -10.76923344 9.1458885 -15 9 C-15 8.67 -15 8.34 -15 8 C-14.11248047 7.85304687 -14.11248047 7.85304687 -13.20703125 7.703125 C-8.15165852 6.74648024 -4.75233265 5.75233265 -1 2 C-0.67 1.34 -0.34 0.68 0 0 Z " fill="#EFC163" transform="translate(141,137)"/>
<path d="M0 0 C0.66 0 1.32 0 2 0 C2 0.66 2 1.32 2 2 C2.66 2 3.32 2 4 2 C4.33 4.97 4.66 7.94 5 11 C3.68 11.33 2.36 11.66 1 12 C1.020625 11.030625 1.04125 10.06125 1.0625 9.0625 C1.35618499 6.12534105 1.35618499 6.12534105 0 5 C-0.04063832 3.33382885 -0.042721 1.66611905 0 0 Z " fill="#FDA104" transform="translate(421,135)"/>
<path d="M0 0 C0.33 0.99 0.66 1.98 1 3 C2.32 3 3.64 3 5 3 C5 3.66 5 4.32 5 5 C0.31506124 7.48887372 -2.9444214 6.85687773 -8 6 C-7.01 5.34 -6.02 4.68 -5 4 C-3.32576317 2.67618483 -1.65788785 1.34423339 0 0 Z " fill="#F2BF5D" transform="translate(77,140)"/>
<path d="M0 0 C7.26 0 14.52 0 22 0 C22 0.66 22 1.32 22 2 C20.35 2.33 18.7 2.66 17 3 C17 2.34 17 1.68 17 1 C8.585 1.495 8.585 1.495 0 2 C0 1.34 0 0.68 0 0 Z " fill="#F8D38F" transform="translate(312,92)"/>
<path d="M0 0 C4.5 4.5 4.5 4.5 4.75 8.75 C4.80671875 9.54921875 4.8634375 10.3484375 4.921875 11.171875 C4.94765625 11.77515625 4.9734375 12.3784375 5 13 C4.67 12.34 4.34 11.68 4 11 C3.01 11.33 2.02 11.66 1 12 C0.67 8.04 0.34 4.08 0 0 Z " fill="#FBA008" transform="translate(330,111)"/>
<path d="M0 0 C1.89668064 2.84502097 3.23263478 5.57299885 4.625 8.6875 C5.07101562 9.68136719 5.51703125 10.67523438 5.9765625 11.69921875 C6.31429688 12.45847656 6.65203125 13.21773437 7 14 C5.02 14 3.04 14 1 14 C0.67 9.38 0.34 4.76 0 0 Z " fill="#F3B647" transform="translate(424,133)"/>
<path d="M0 0 C0.99 0 1.98 0 3 0 C3 1.98 3 3.96 3 6 C3.66 6 4.32 6 5 6 C5 8.97 5 11.94 5 15 C3.25050228 12.37575342 2.34610019 10.44272784 1.375 7.5 C0.98441406 6.33984375 0.98441406 6.33984375 0.5859375 5.15625 C0 3 0 3 0 0 Z " fill="#F4C157" transform="translate(232,106)"/>
<path d="M0 0 C1.66611905 -0.042721 3.33382885 -0.04063832 5 0 C5.33 0.33 5.66 0.66 6 1 C5.71269945 3.33944736 5.38063221 5.6739143 5 8 C4.01 8.33 3.02 8.66 2 9 C2 6.36 2 3.72 2 1 C1.34 0.67 0.68 0.34 0 0 Z " fill="#F1A82B" transform="translate(358,93)"/>
<path d="M0 0 C0.33 1.32 0.66 2.64 1 4 C-5.6 4 -12.2 4 -19 4 C-19 3.67 -19 3.34 -19 3 C-18.13117188 2.95101562 -17.26234375 2.90203125 -16.3671875 2.8515625 C-15.21476562 2.77679688 -14.06234375 2.70203125 -12.875 2.625 C-11.16957031 2.52058594 -11.16957031 2.52058594 -9.4296875 2.4140625 C-6.04606384 2.00556124 -3.18387559 1.19032431 0 0 Z " fill="#F0A21C" transform="translate(140,143)"/>
<path d="M0 0 C0.66 0.66 1.32 1.32 2 2 C2.99 1.34 3.98 0.68 5 0 C4.125 7.75 4.125 7.75 3 10 C1.02 10 -0.96 10 -3 10 C-3 9.67 -3 9.34 -3 9 C-1.35 9 0.3 9 2 9 C1.67 8.2575 1.34 7.515 1 6.75 C0 4 0 4 0 0 Z " fill="#EFBC5B" transform="translate(343,138)"/>
<path d="M0 0 C0.99 0.66 1.98 1.32 3 2 C2.01 5.3 1.02 8.6 0 12 C-0.99 11.67 -1.98 11.34 -3 11 C-2.01 7.37 -1.02 3.74 0 0 Z " fill="#F0CB7B" transform="translate(349,128)"/>
<path d="M0 0 C6.27 0.33 12.54 0.66 19 1 C18.67 1.66 18.34 2.32 18 3 C15.4375 3.625 15.4375 3.625 13 4 C13 3.34 13 2.68 13 2 C6.565 2.495 6.565 2.495 0 3 C0 2.01 0 1.02 0 0 Z " fill="#EFCA7D" transform="translate(72,119)"/>
<path d="M0 0 C6.93 0.33 13.86 0.66 21 1 C21 1.66 21 2.32 21 3 C13.74 3 6.48 3 -1 3 C-0.67 2.01 -0.34 1.02 0 0 Z " fill="#F8D392" transform="translate(105,91)"/>
<path d="M0 0 C3 1 3 1 4.1875 2.6875 C5.19313465 5.54969093 5.13689641 7.98827908 5 11 C4.34 11 3.68 11 3 11 C2.01 7.37 1.02 3.74 0 0 Z " fill="#F5B447" transform="translate(256,98)"/>
<path d="M0 0 C1.5 1.25 1.5 1.25 3 3 C3 4.32 3 5.64 3 7 C1.35 7 -0.3 7 -2 7 C-2.33 5.35 -2.66 3.7 -3 2 C-2.01 1.34 -1.02 0.68 0 0 Z " fill="#F9A10A" transform="translate(342,140)"/>
<path d="M0 0 C0.66 0.33 1.32 0.66 2 1 C2 1.66 2 2.32 2 3 C1.34 3 0.68 3 0 3 C0 5.31 0 7.62 0 10 C-0.99 9.67 -1.98 9.34 -3 9 C-3.1875 5.625 -3.1875 5.625 -3 2 C-2.01 1.34 -1.02 0.68 0 0 Z " fill="#F9A317" transform="translate(205,128)"/>
<path d="M0 0 C1.90747183 2.86120775 3.00353706 5.35254993 4.1875 8.5625 C4.55230469 9.53316406 4.91710937 10.50382812 5.29296875 11.50390625 C6 14 6 14 5 16 C0.82167521 10.87818251 0.25786427 6.52396607 0 0 Z " fill="#F4C464" transform="translate(418,117)"/>
<path d="M0 0 C0.66 0 1.32 0 2 0 C1.51171875 6.0546875 1.51171875 6.0546875 1 8 C0.01 8.66 -0.98 9.32 -2 10 C-1.85950482 8.52031676 -1.71245174 7.04125484 -1.5625 5.5625 C-1.48128906 4.73878906 -1.40007812 3.91507812 -1.31640625 3.06640625 C-1 1 -1 1 0 0 Z " fill="#EDBF63" transform="translate(396,113)"/>
<path d="M0 0 C0 0.66 0 1.32 0 2 C-1.96147874 3.38938077 -3.96166576 4.7260411 -6 6 C-6 5.01 -6 4.02 -6 3 C-6.99 2.67 -7.98 2.34 -9 2 C-5.5647952 -0.29013653 -4.014669 -0.17842973 0 0 Z " fill="#F0C263" transform="translate(54,94)"/>
<path d="M0 0 C5.875 3.625 5.875 3.625 7 7 C4.03 6.505 4.03 6.505 1 6 C0.67 4.02 0.34 2.04 0 0 Z " fill="#F1AD38" transform="translate(165,139)"/>
<path d="M0 0 C0.33 1.65 0.66 3.3 1 5 C-4.75 3.375 -4.75 3.375 -7 0 C-3.98968256 -0.93423645 -3.13349732 -1.04449911 0 0 Z " fill="#F0B545" transform="translate(49,140)"/>
<path d="M0 0 C2.60334924 2.71182212 2.99456691 3.89133813 3.1875 7.75 C3.125625 8.8225 3.06375 9.895 3 11 C0.41050731 9.70525365 0.03964236 8.67336607 -1 6 C-1.1875 3.3125 -1.1875 3.3125 -1 1 C-0.67 0.67 -0.34 0.34 0 0 Z " fill="#FCA005" transform="translate(336,125)"/>
<path d="M0 0 C3.3 0 6.6 0 10 0 C10 0.33 10 0.66 10 1 C8.35 1 6.7 1 5 1 C5 4.96 5 8.92 5 13 C4.67 13 4.34 13 4 13 C3.96261719 12.39671875 3.92523438 11.7934375 3.88671875 11.171875 C3.82097656 10.37265625 3.75523437 9.5734375 3.6875 8.75 C3.62949219 7.96109375 3.57148438 7.1721875 3.51171875 6.359375 C3.06479016 3.50749861 3.06479016 3.50749861 0 0 Z " fill="#F4C05C" transform="translate(446,93)"/>
<path d="M0 0 C0.99 0.33 1.98 0.66 3 1 C4.80795432 5.0916861 5.21156222 8.55719328 5 13 C2.94876752 10.94876752 2.35852882 9.72994937 1.375 7.0625 C0.98441406 6.02802734 0.98441406 6.02802734 0.5859375 4.97265625 C0 3 0 3 0 0 Z " fill="#F5BF5F" transform="translate(324,104)"/>
<path d="M0 0 C3.63 0.33 7.26 0.66 11 1 C7 4 7 4 3.25 3.6875 C2.1775 3.460625 1.105 3.23375 0 3 C0 2.01 0 1.02 0 0 Z " fill="#FDE8C6" transform="translate(441,91)"/>
<path d="M0 0 C3.09592835 3.5087188 4.74194623 6.49197399 6 11 C3 9 3 9 2 6 C1.34 5.67 0.68 5.34 0 5 C-0.33 5.66 -0.66 6.32 -1 7 C-0.67 4.69 -0.34 2.38 0 0 Z " fill="#F7AE2D" transform="translate(270,126)"/>
<path d="M0 0 C0 1.65 0 3.3 0 5 C-1.32 4.67 -2.64 4.34 -4 4 C-4.33 4.66 -4.66 5.32 -5 6 C-5.66 6 -6.32 6 -7 6 C-6.6875 4.125 -6.6875 4.125 -6 2 C-3 0 -3 0 0 0 Z " fill="#F6A826" transform="translate(163,102)"/>
<path d="M0 0 C4 3 4 3 4.390625 5.04296875 C4.26041667 7.02864583 4.13020833 9.01432292 4 11 C3.34 11 2.68 11 2 11 C1.34 7.37 0.68 3.74 0 0 Z " fill="#FCA103" transform="translate(259,98)"/>
<path d="M0 0 C2.46301423 2.46301423 2.76766521 4.27360036 3.625 7.625 C3.88539063 8.62789062 4.14578125 9.63078125 4.4140625 10.6640625 C4.60742188 11.43492187 4.80078125 12.20578125 5 13 C4.34 12.67 3.68 12.34 3 12 C3 11.34 3 10.68 3 10 C2.34 10 1.68 10 1 10 C0.67 6.7 0.34 3.4 0 0 Z " fill="#F5C460" transform="translate(338,125)"/>
<path d="M0 0 C0.99 0.66 1.98 1.32 3 2 C2.67 3.98 2.34 5.96 2 8 C1.34 7.67 0.68 7.34 0 7 C-0.66 8.32 -1.32 9.64 -2 11 C-3 9 -3 9 -2.44140625 6.8359375 C-2.15136719 6.02382812 -1.86132812 5.21171875 -1.5625 4.375 C-1.27503906 3.55773437 -0.98757813 2.74046875 -0.69140625 1.8984375 C-0.46324219 1.27195312 -0.23507812 0.64546875 0 0 Z " fill="#F3D38E" transform="translate(287,110)"/>
<path d="M0 0 C0 0.99 0 1.98 0 3 C-1.98 3.99 -1.98 3.99 -4 5 C-4 4.34 -4 3.68 -4 3 C-5.32 2.67 -6.64 2.34 -8 2 C-4.77208445 -0.1519437 -3.71599191 -0.20086443 0 0 Z " fill="#F2BE5B" transform="translate(172,94)"/>
<path d="M0 0 C4.62 0 9.24 0 14 0 C14 0.33 14 0.66 14 1 C11.36 1 8.72 1 6 1 C6 1.66 6 2.32 6 3 C3.03 2.505 3.03 2.505 0 2 C0 1.34 0 0.68 0 0 Z " fill="#F8D390" transform="translate(395,92)"/>
<path d="M0 0 C0.33 0 0.66 0 1 0 C1 3.63 1 7.26 1 11 C0.34 11 -0.32 11 -1 11 C-1.66 8.69 -2.32 6.38 -3 4 C-2.01 4.33 -1.02 4.66 0 5 C0 3.35 0 1.7 0 0 Z " fill="#F2C778" transform="translate(81,96)"/>
<path d="M0 0 C3.96 0 7.92 0 12 0 C11.34 0.66 10.68 1.32 10 2 C6.375 1.625 6.375 1.625 3 1 C3 1.66 3 2.32 3 3 C3.66 3.33 4.32 3.66 5 4 C4.01 4 3.02 4 2 4 C1.34 2.68 0.68 1.36 0 0 Z " fill="#EEB34E" transform="translate(252,93)"/>
<path d="M0 0 C0.99 0 1.98 0 3 0 C3.33 3.3 3.66 6.6 4 10 C2 7 2 7 2 4 C1.34 4 0.68 4 0 4 C0 2.68 0 1.36 0 0 Z " fill="#F7B035" transform="translate(403,94)"/>
<path d="M0 0 C1.65 0 3.3 0 5 0 C5.33 1.98 5.66 3.96 6 6 C5.01 6.495 5.01 6.495 4 7 C3.34 5.35 2.68 3.7 2 2 C1.34 2 0.68 2 0 2 C0 1.34 0 0.68 0 0 Z " fill="#EEB747" transform="translate(225,93)"/>
<path d="M0 0 C3 2 3 2 3.6875 4.625 C3.790625 5.40875 3.89375 6.1925 4 7 C1.03 6.505 1.03 6.505 -2 6 C-2 5.34 -2 4.68 -2 4 C-1.34 4 -0.68 4 0 4 C0 2.68 0 1.36 0 0 Z " fill="#F6B13A" transform="translate(239,112)"/>
<path d="M0 0 C0.33 1.32 0.66 2.64 1 4 C1.66 4 2.32 4 3 4 C2.39816251 6.02045442 1.72693904 8.02111039 1 10 C0.01 10.495 0.01 10.495 -1 11 C-0.67 7.37 -0.34 3.74 0 0 Z " fill="#EAB75A" transform="translate(401,95)"/>
<path d="M0 0 C1.65 0 3.3 0 5 0 C5 1.65 5 3.3 5 5 C2.525 4.01 2.525 4.01 0 3 C0 2.01 0 1.02 0 0 Z " fill="#F3A725" transform="translate(76,96)"/>
<path d="M0 0 C2.31 0.33 4.62 0.66 7 1 C7 1.66 7 2.32 7 3 C5.35 3.33 3.7 3.66 2 4 C1.34 2.68 0.68 1.36 0 0 Z " fill="#F1B44E" transform="translate(191,94)"/>
<path d="M0 0 C1.98 0 3.96 0 6 0 C6 0.66 6 1.32 6 2 C5.071875 2.4021875 5.071875 2.4021875 4.125 2.8125 C1.7004767 3.95556848 1.7004767 3.95556848 0 7 C0 4.69 0 2.38 0 0 Z " fill="#F8A110" transform="translate(112,94)"/>
<path d="M0 0 C0.33 0 0.66 0 1 0 C1.1875 3.375 1.1875 3.375 1 7 C0.01 7.66 -0.98 8.32 -2 9 C-2 7.02 -2 5.04 -2 3 C-1.34 3 -0.68 3 0 3 C0 2.01 0 1.02 0 0 Z " fill="#EAB85D" transform="translate(258,120)"/>
<path d="M0 0 C1.98 0 3.96 0 6 0 C6 0.66 6 1.32 6 2 C3.5 3.625 3.5 3.625 1 5 C0.67 3.35 0.34 1.7 0 0 Z " fill="#F0C475" transform="translate(363,93)"/>
<path d="M0 0 C1.65 0.33 3.3 0.66 5 1 C5.33 2.32 5.66 3.64 6 5 C4.02 4.34 2.04 3.68 0 3 C0 2.01 0 1.02 0 0 Z " fill="#F4E3B8" transform="translate(285,91)"/>
</svg>
